<svg version="1.1" id="Layer_1" xmlns="http://www.w3.org/2000/svg" xmlns:xlink="http://www.w3.org/1999/xlink" x="0px" y="0px"
	 width="100%" viewBox="0 0 1152 648" enable-background="new 0 0 1152 648" xml:space="preserve">
<path fill="#FFFFFF" opacity="1.000000" stroke="none" 
	d="
M664.000000,649.000000 
	C442.666687,649.000000 221.833359,649.000000 1.000030,649.000000 
	C1.000020,433.000031 1.000020,217.000046 1.000010,1.000059 
	C384.999969,1.000039 768.999939,1.000039 1153.000000,1.000020 
	C1153.000000,216.999939 1153.000000,432.999878 1153.000000,648.999878 
	C990.166687,649.000000 827.333313,649.000000 664.000000,649.000000 
M141.425690,179.154617 
	C152.874405,159.524673 160.559204,138.406754 167.337128,116.158081 
	C164.064667,116.158081 161.902710,116.347160 159.786453,116.116600 
	C156.008072,115.704941 154.397949,116.951508 153.407318,120.956680 
	C150.999344,130.692169 147.724915,140.211334 144.875656,149.840179 
	C141.160126,162.396530 137.518112,174.974655 133.844452,187.543411 
	C134.176331,187.768936 134.508224,187.994446 134.840103,188.219971 
	C136.934189,185.415176 139.028259,182.610367 141.425690,179.154617 
M184.852493,118.410049 
	C182.806747,113.354034 178.612869,116.952301 175.524338,116.427544 
	C174.338730,116.226097 171.814224,118.913177 171.271133,120.700714 
	C166.328506,136.969040 161.663681,153.322205 156.974106,169.666748 
	C155.259811,175.641525 153.697159,181.659836 152.065338,187.658279 
	C152.450943,187.859055 152.836548,188.059814 153.222137,188.260590 
	C157.143707,181.809341 161.881256,175.707581 164.824020,168.837097 
	C171.851715,152.429520 178.033203,135.659515 184.852493,118.410049 
M99.614296,187.421021 
	C101.753952,184.310547 104.018585,181.277908 106.012344,178.076553 
	C116.503708,161.230820 122.891495,142.613144 129.198669,123.968735 
	C129.997589,121.607086 130.612411,119.183151 131.493683,116.168388 
	C128.773163,116.168388 127.104881,116.373245 125.504738,116.129967 
	C120.711311,115.401192 118.607948,117.195885 117.261177,122.089722 
	C112.020332,141.133682 106.149193,160.003464 100.638023,178.974503 
	C99.817886,181.797653 99.669449,184.815918 99.614296,187.421021 
M133.072327,160.952148 
	C138.682419,146.378296 144.292496,131.804443 149.949738,117.108070 
	C138.930359,114.465317 137.331985,115.218262 134.480774,124.594772 
	C128.640549,143.801163 122.927879,163.046463 117.228821,182.295319 
	C116.909149,183.375031 117.187477,184.631790 117.187477,187.177338 
	C124.859543,179.013824 128.476227,170.121536 133.072327,160.952148 
z"/>
<path fill="#156FB5" opacity="1.000000" stroke="none" 
	d="
M141.274017,179.480103 
	C139.028259,182.610367 136.934189,185.415176 134.840103,188.219971 
	C134.508224,187.994446 134.176331,187.768936 133.844452,187.543411 
	C137.518112,174.974655 141.160126,162.396530 144.875656,149.840179 
	C147.724915,140.211334 150.999344,130.692169 153.407318,120.956680 
	C154.397949,116.951508 156.008072,115.704941 159.786453,116.116600 
	C161.902710,116.347160 164.064667,116.158081 167.337128,116.158081 
	C160.559204,138.406754 152.874405,159.524673 141.274017,179.480103 
z"/>
<path fill="#156FB5" opacity="1.000000" stroke="none" 
	d="
M184.704437,118.722954 
	C178.033203,135.659515 171.851715,152.429520 164.824020,168.837097 
	C161.881256,175.707581 157.143707,181.809341 153.222137,188.260590 
	C152.836548,188.059814 152.450943,187.859055 152.065338,187.658279 
	C153.697159,181.659836 155.259811,175.641525 156.974106,169.666748 
	C161.663681,153.322205 166.328506,136.969040 171.271133,120.700714 
	C171.814224,118.913177 174.338730,116.226097 175.524338,116.427544 
	C178.612869,116.952301 182.806747,113.354034 184.704437,118.722954 
z"/>
<path fill="#156FB5" opacity="1.000000" stroke="none" 
	d="
M99.412277,187.582474 
	C99.669449,184.815918 99.817886,181.797653 100.638023,178.974503 
	C106.149193,160.003464 112.020332,141.133682 117.261177,122.089722 
	C118.607948,117.195885 120.711311,115.401192 125.504738,116.129967 
	C127.104881,116.373245 128.773163,116.168388 131.493683,116.168388 
	C130.612411,119.183151 129.997589,121.607086 129.198669,123.968735 
	C122.891495,142.613144 116.503708,161.230820 106.012344,178.076553 
	C104.018585,181.277908 101.753952,184.310547 99.412277,187.582474 
z"/>
<path fill="#156FB5" opacity="1.000000" stroke="none" 
	d="
M132.901443,161.287125 
	C128.476227,170.121536 124.859543,179.013824 117.187477,187.177338 
	C117.187477,184.631790 116.909149,183.375031 117.228821,182.295319 
	C122.927879,163.046463 128.640549,143.801163 134.480774,124.594772 
	C137.331985,115.218262 138.930359,114.465317 149.949738,117.108070 
	C144.292496,131.804443 138.682419,146.378296 132.901443,161.287125 
z"/>
</svg>