<svg version="1.1" id="Layer_1" xmlns="http://www.w3.org/2000/svg" xmlns:xlink="http://www.w3.org/1999/xlink" x="0px" y="0px"
	 width="100%" viewBox="0 0 109 93" enable-background="new 0 0 109 93" xml:space="preserve">
<path fill="#FEFFFE" opacity="1.000000" stroke="none" 
	d="
M1.000000,38.000000 
	C1.000000,25.333338 1.000000,13.166674 1.000000,1.000008 
	C37.333317,1.000005 73.666634,1.000005 109.999969,1.000003 
	C109.999977,31.999977 109.999977,62.999954 109.999985,93.999954 
	C73.666702,93.999969 37.333401,93.999969 1.000052,93.999985 
	C1.000000,75.500000 1.000000,57.000000 1.000000,38.000000 
M36.840313,40.215370 
	C36.736206,39.981655 36.632095,39.747936 36.583435,39.196667 
	C36.583435,39.196667 36.846336,39.010139 37.346466,38.826469 
	C37.568993,38.556835 37.791515,38.287205 38.823746,38.006237 
	C39.903435,38.009361 40.983128,38.012486 42.023289,38.781151 
	C41.956886,39.800343 41.890488,40.819534 41.449116,42.177692 
	C41.249203,42.449287 41.049294,42.720882 40.357559,43.418652 
	C39.926826,44.947262 39.496094,46.475868 39.004330,48.833569 
	C38.996170,50.218220 38.988007,51.602871 38.793480,53.515278 
	C38.527191,54.007481 38.260902,54.499683 37.445721,55.463970 
	C37.302376,56.658871 37.159035,57.853775 36.949833,59.654198 
	C36.975052,59.855656 37.000275,60.057117 36.789223,60.282982 
	C36.789223,60.282982 36.551701,60.284729 35.889526,60.164093 
	C35.638577,60.799728 35.387630,61.435364 35.050915,62.761093 
	C34.966106,63.453434 34.881302,64.145775 34.465816,65.238632 
	C34.593674,65.805397 34.721531,66.372162 34.916100,67.602882 
	C34.862503,68.267609 34.808907,68.932343 34.190666,69.912964 
	C33.713680,70.616264 33.236691,71.319557 32.329716,72.475159 
	C32.209465,73.291626 32.089218,74.108086 31.874117,75.480804 
	C31.816050,75.659714 31.757984,75.838623 31.349922,76.263596 
	C31.152941,76.476166 31.003611,76.718155 30.170826,77.011932 
	C26.577608,78.026459 25.933367,80.801086 26.011293,84.754379 
	C26.826059,85.799278 27.499271,87.577019 28.479301,87.766319 
	C33.604935,88.756386 37.232052,86.264206 39.216312,80.561676 
	C39.415817,80.288338 39.677048,80.101112 40.771591,80.021561 
	C41.611771,81.168503 42.365917,82.393211 43.314281,83.442360 
	C44.456661,84.706154 45.764042,85.820793 47.666618,87.000000 
	C48.111027,87.000000 48.555439,87.000000 49.294159,87.590073 
	C54.326839,90.832756 53.581600,84.327896 55.561512,83.669296 
	C58.418995,86.267426 61.012417,88.625465 63.156143,90.574623 
	C65.625549,89.594711 67.598610,88.022446 69.124893,88.376442 
	C71.979385,89.038506 72.410057,87.768204 73.293175,85.679199 
	C76.165070,78.885712 79.300354,72.202881 82.388733,65.502563 
	C82.723953,64.775299 83.465630,64.246780 83.929604,63.565372 
	C85.518402,61.232029 87.067459,58.871624 88.631668,56.521538 
	C88.321541,55.585278 89.004959,55.854324 89.681129,56.140484 
	C92.379227,57.282326 93.514854,55.879692 92.216225,53.756809 
	C89.207413,48.838257 92.062492,44.835346 93.660339,40.674137 
	C96.263283,33.895397 99.336174,27.293570 101.823853,20.475910 
	C102.761307,17.906733 102.835831,14.946505 102.859406,12.160788 
	C102.867813,11.167134 101.590614,9.365194 100.852501,9.340168 
	C99.587128,9.297263 98.284187,10.361857 96.141167,10.984356 
	C94.428154,10.981312 92.715134,10.978268 90.885742,10.272192 
	C89.569679,9.243725 78.254501,8.147516 77.299065,9.099432 
	C76.930153,9.466982 77.084412,10.359632 76.125725,11.038009 
	C74.084511,11.043241 72.043289,11.048472 69.903374,10.352637 
	C65.146469,6.070431 63.437756,6.216228 61.333973,11.040652 
	C60.889145,11.031521 60.444313,11.022389 59.986523,10.233144 
	C58.882595,9.188963 57.778664,8.144782 56.674732,7.100602 
	C56.116852,8.408520 55.558968,9.716437 54.277802,11.049692 
	C53.092724,11.594585 51.907646,12.139479 50.333500,12.859312 
	C50.333500,12.859312 49.919796,12.967303 49.250645,12.910069 
	C47.502895,12.683782 45.755146,12.457495 43.357666,12.431992 
	C42.926952,12.324735 42.496243,12.217479 41.963646,11.467546 
	C40.299522,11.345652 38.635395,11.223758 36.327309,11.077701 
	C35.512180,11.566319 34.697052,12.054939 33.504349,12.872835 
	C33.343819,12.918847 33.183289,12.964860 32.408974,12.740851 
	C29.699780,13.052448 29.135983,14.363438 30.106150,18.867853 
	C30.227274,19.422451 30.348400,19.977049 30.431698,20.823719 
	C30.431698,20.823719 30.189209,20.990858 29.667933,21.185974 
	C29.458666,21.482450 29.249399,21.778929 29.058884,22.893696 
	C29.171936,23.425430 29.284990,23.957163 29.374950,25.019747 
	C29.241825,25.346205 29.108700,25.672665 28.335182,26.319483 
	C27.585106,27.942272 26.645266,29.506004 26.118578,31.198318 
	C24.092449,37.708523 22.074228,44.226284 20.295862,50.806847 
	C18.941271,55.819298 17.953680,60.930923 16.444740,66.241325 
	C16.224669,66.441772 16.072989,66.684921 15.957374,67.488182 
	C15.956357,67.660995 15.955340,67.833801 15.229867,68.084030 
	C14.202382,68.977989 12.545804,69.710785 12.267631,70.796692 
	C11.492574,73.822296 11.129530,76.983711 10.920767,80.112640 
	C10.797490,81.960327 11.096150,83.903465 11.639747,85.669914 
	C11.744776,86.011215 14.644884,86.170013 14.928168,85.666359 
	C16.499531,82.872604 17.660875,79.848236 19.018372,76.474625 
	C19.118629,76.186798 19.305231,75.975075 20.458492,75.912476 
	C24.628178,75.514206 22.469446,72.438660 22.737617,70.153656 
	C22.737617,70.153656 22.948124,69.998901 23.717890,69.913834 
	C24.421694,68.168900 25.125496,66.423958 25.849304,64.299431 
	C25.849304,64.299431 26.104269,64.017517 26.730890,63.922138 
	C27.149092,63.273514 27.567295,62.624893 27.840019,61.222042 
	C27.735439,60.988335 27.630859,60.754623 27.573959,60.187618 
	C27.573959,60.187618 27.797327,59.935699 28.372206,59.685127 
	C28.460316,59.299438 28.548426,58.913754 28.664040,58.215935 
	C28.664040,58.215935 28.855837,57.968151 29.442059,57.621765 
	C29.557106,56.983845 29.672152,56.345924 29.914198,55.119396 
	C30.226868,54.388550 30.539536,53.657703 31.402981,52.652340 
	C31.465513,52.269310 31.528046,51.886284 31.649065,51.180244 
	C31.649065,51.180244 31.869349,50.936867 32.418564,50.999821 
	C32.602638,50.993851 32.786713,50.987885 33.589249,50.909477 
	C33.340656,50.219181 33.092064,49.528881 32.919956,48.229012 
	C33.205914,47.463905 33.491871,46.698803 34.382984,45.634953 
	C34.535763,45.014454 34.688545,44.393955 34.891464,43.377819 
	C34.891464,43.377819 35.083035,43.028042 35.559402,42.830563 
	C35.758839,42.554241 35.958271,42.277920 36.535446,41.752190 
	C36.770054,41.540058 36.919556,41.279121 36.840313,40.215370 
z"/>
<path fill="#FCFEFE" opacity="1.000000" stroke="none" 
	d="
M96.997025,10.961449 
	C98.284187,10.361857 99.587128,9.297263 100.852501,9.340168 
	C101.590614,9.365194 102.867813,11.167134 102.859406,12.160788 
	C102.835831,14.946505 102.761307,17.906733 101.823853,20.475910 
	C99.336174,27.293570 96.263283,33.895397 93.660339,40.674137 
	C92.062492,44.835346 89.207413,48.838257 92.216225,53.756809 
	C93.514854,55.879692 92.379227,57.282326 89.681129,56.140484 
	C89.004959,55.854324 88.321541,55.585278 88.631668,56.521538 
	C87.067459,58.871624 85.518402,61.232029 83.929604,63.565372 
	C83.465630,64.246780 82.723953,64.775299 82.388733,65.502563 
	C79.300354,72.202881 76.165070,78.885712 73.293175,85.679199 
	C72.410057,87.768204 71.979385,89.038506 69.124893,88.376442 
	C67.598610,88.022446 65.625549,89.594711 63.156143,90.574623 
	C61.012417,88.625465 58.418995,86.267426 55.561512,83.669296 
	C53.581600,84.327896 54.326839,90.832756 49.147141,86.966164 
	C49.000584,85.903763 49.001038,85.465263 49.218369,84.911026 
	C49.708893,84.594704 49.898640,84.333237 50.165405,83.716553 
	C52.909386,79.627556 55.492447,75.832901 58.277481,71.912445 
	C58.732830,71.578201 58.906311,71.316742 59.021759,70.626495 
	C59.026527,69.498947 59.009434,68.747177 58.996094,67.997704 
	C58.999847,68.000000 58.994667,67.992844 59.345474,67.964333 
	C60.424061,66.565994 61.151848,65.196159 61.906479,63.618740 
	C61.933331,63.411148 62.095299,63.025108 62.325645,62.876438 
	C62.733833,62.226242 62.911678,61.724712 63.199768,60.884972 
	C64.464439,58.021282 65.618866,55.495796 67.078690,52.809471 
	C67.605240,51.786793 67.826378,50.924953 68.021179,50.044704 
	C67.994843,50.026295 68.059074,50.027050 68.315750,49.835487 
	C68.675041,49.032982 68.777664,48.422031 68.950401,47.543877 
	C69.220329,46.231224 69.420143,45.185783 69.637299,44.054630 
	C69.654640,43.968922 69.646202,43.794228 69.906479,43.636314 
	C70.680122,42.603935 71.193489,41.729469 72.007324,40.736923 
	C72.340813,40.219837 72.373817,39.820835 72.418335,39.166779 
	C72.559418,38.598663 72.688995,38.285595 73.120346,37.798943 
	C73.615425,36.745602 73.808746,35.865845 74.029694,34.743893 
	C74.057327,34.501694 74.236145,34.048130 74.441010,33.938347 
	C74.875999,33.609867 75.042038,33.350197 75.278366,32.955399 
	C75.657494,32.563076 75.615707,32.302254 75.216331,32.013000 
	C75.145287,31.947226 74.951836,31.955696 74.997314,31.679094 
	C75.309448,30.913691 75.576103,30.424889 76.144958,29.748314 
	C76.590843,28.643404 76.734543,27.726265 76.955727,26.433533 
	C77.125626,25.046864 77.218040,24.035786 77.331909,22.972042 
	C77.353371,22.919380 77.371414,22.807085 77.500885,22.885639 
	C77.630356,22.964191 77.924881,23.034840 78.051880,23.195053 
	C78.381973,22.795359 78.585075,22.235453 78.804047,21.500206 
	C78.819916,21.324863 78.981850,21.012192 79.243385,20.808710 
	C79.749092,19.758041 79.993271,18.910852 80.507736,18.198444 
	C81.838654,19.200130 82.899269,20.067041 83.908188,21.214966 
	C83.744820,21.650307 83.633156,21.804632 83.193504,22.082327 
	C82.584793,23.821070 82.304077,25.436441 82.018356,27.297115 
	C82.013359,27.542419 81.780624,27.974424 81.434875,28.058594 
	C79.190826,33.855762 77.067459,39.506611 75.467110,45.301884 
	C74.237732,49.753788 73.667206,54.387627 72.809250,59.294250 
	C72.634285,60.078003 72.453743,60.508057 71.979202,61.037121 
	C71.402412,62.752216 71.119614,64.368301 70.898323,66.238419 
	C70.986336,66.664680 71.012840,66.836906 70.894707,67.202744 
	C70.750069,67.396347 70.815460,67.875237 70.670403,67.894966 
	C70.525345,67.914696 70.247307,67.822899 69.919907,67.896072 
	C68.407066,69.653854 67.221611,71.338448 65.762306,72.838501 
	C64.456032,72.488831 62.638470,71.960190 62.519184,72.217834 
	C61.769276,73.837555 61.397121,75.632172 60.675655,78.153152 
	C63.370930,77.066422 64.692108,76.533722 66.013687,76.398445 
	C66.006790,77.855553 65.999489,78.915245 65.967026,80.311707 
	C65.973923,81.095863 66.005981,81.543259 65.731827,82.142326 
	C65.237831,83.089447 65.050041,83.884895 64.862251,84.680336 
	C66.376411,84.401482 68.446335,84.633743 69.279114,83.728233 
	C70.649963,82.237679 71.219948,80.010590 72.347412,77.882553 
	C72.695938,77.090736 72.824608,76.510361 72.977966,75.955070 
	C73.002655,75.980164 72.933037,75.969704 73.197098,75.835022 
	C73.591270,75.339935 73.721375,74.979523 73.864990,74.429337 
	C73.878502,74.239571 74.171555,73.996872 74.380264,73.870850 
	C74.834702,73.491653 74.930992,73.190628 74.904778,72.884041 
	C74.931702,72.926323 74.832329,72.913086 75.124931,72.779999 
	C75.542313,72.251221 75.667084,71.855522 75.761108,71.321411 
	C75.730370,71.182983 75.952667,71.006889 76.210739,70.873627 
	C76.728371,70.230103 76.987923,69.719833 77.589096,69.093353 
	C78.633873,67.050583 79.337029,65.124031 80.147263,62.917458 
	C80.506874,62.095242 80.759422,61.553040 81.252045,60.868225 
	C81.621925,60.386795 81.751747,60.047970 81.914215,59.510784 
	C81.946861,59.312424 82.192009,58.993752 82.383408,58.873055 
	C82.583755,58.211239 82.592712,57.670120 82.538940,56.998611 
	C82.476219,56.868217 82.406326,56.587395 82.630219,56.502869 
	C83.135170,56.199001 83.243874,55.913975 83.340012,55.403427 
	C83.499802,55.243591 83.846588,54.953644 84.134933,54.809372 
	C84.596123,54.068325 84.768967,53.471554 84.978691,52.647316 
	C85.015564,52.419846 85.278801,52.041538 85.512047,51.797722 
	C86.084892,50.487770 86.424492,49.421635 86.745049,48.117741 
	C86.772743,47.556301 86.900276,47.268425 87.463547,46.942352 
	C88.492798,44.817318 89.167122,42.766285 89.856567,40.525524 
	C89.871696,40.335796 90.084419,40.020123 90.390411,39.853554 
	C91.438194,37.112247 92.179977,34.537514 92.918243,31.639462 
	C93.247086,30.540945 93.579453,29.765739 94.278938,28.947765 
	C96.025055,24.246222 97.404053,19.587450 98.778091,14.619076 
	C98.827339,13.900182 98.881554,13.490891 98.936829,12.748558 
	C98.290932,11.930826 97.643974,11.446136 96.997025,10.961449 
z"/>
<path fill="#126CB0" opacity="1.000000" stroke="none" 
	d="
M28.975574,25.999125 
	C29.108700,25.672665 29.241825,25.346205 29.634804,24.522131 
	C29.979137,23.369759 30.063614,22.715000 30.222809,21.795376 
	C30.261421,21.350624 30.225315,21.170742 30.189209,20.990858 
	C30.189209,20.990858 30.431698,20.823719 30.728165,20.479145 
	C31.450659,18.385798 31.876686,16.637022 32.516975,14.616982 
	C32.828411,13.900769 32.925583,13.455820 33.022755,13.010872 
	C33.183289,12.964860 33.343819,12.918847 34.104385,12.791264 
	C35.516499,12.570629 36.328571,12.431567 37.545166,12.402081 
	C39.321636,12.377844 40.693584,12.244034 42.065529,12.110224 
	C42.496243,12.217479 42.926952,12.324735 43.850670,12.629595 
	C44.567139,13.221576 44.790607,13.615952 44.815136,14.224924 
	C44.657600,14.995303 44.699001,15.551088 44.567032,16.389713 
	C44.129513,17.277742 43.865364,17.882929 43.372643,18.742680 
	C43.131550,19.665842 43.119019,20.334440 43.014999,21.195759 
	C42.923504,21.388481 42.879250,21.812855 42.599308,21.986343 
	C42.133984,22.760761 41.948597,23.361692 41.649349,24.249292 
	C41.343136,25.334557 41.150787,26.133150 40.657295,27.123680 
	C39.686718,29.547457 39.017288,31.779299 38.249180,34.312202 
	C38.069279,35.027714 37.988049,35.442162 37.617371,36.003254 
	C37.169968,36.748516 37.012016,37.347134 36.793091,38.211418 
	C36.770184,38.654774 36.808262,38.832458 36.846336,39.010139 
	C36.846336,39.010139 36.583435,39.196667 36.338463,39.483414 
	C35.942986,40.066792 35.792480,40.363419 35.440605,40.910030 
	C35.187160,41.782692 35.135098,42.405365 35.083031,43.028042 
	C35.083035,43.028042 34.891464,43.377819 34.583118,43.742607 
	C34.109127,44.716164 33.943478,45.324928 33.777828,45.933697 
	C33.491871,46.698803 33.205914,47.463905 32.851677,48.494698 
	C32.783398,48.760387 32.691547,48.796268 32.438721,48.974075 
	C32.080383,49.746876 31.974865,50.341869 31.869349,50.936867 
	C31.869349,50.936867 31.649065,51.180244 31.379236,51.505310 
	C31.023674,52.195873 30.937941,52.561367 30.852207,52.926861 
	C30.539536,53.657703 30.226868,54.388550 29.584414,55.606110 
	C29.121698,56.717934 28.988768,57.343040 28.855837,57.968151 
	C28.855837,57.968151 28.664040,58.215935 28.394146,58.523533 
	C28.015276,59.199322 27.906301,59.567509 27.797327,59.935699 
	C27.797327,59.935699 27.573959,60.187618 27.349785,60.536560 
	C27.035931,61.229401 26.946251,61.573303 26.650442,62.061562 
	C26.229725,62.463772 26.015139,62.721630 25.462761,63.052727 
	C24.442116,64.791939 23.759262,66.457916 23.046906,68.437393 
	C22.994312,69.166908 22.971218,69.582901 22.948124,69.998901 
	C22.948124,69.998901 22.737617,70.153656 22.483440,70.410034 
	C21.810648,71.111244 21.392033,71.556068 20.730080,72.134933 
	C20.288227,72.772942 20.089706,73.276917 19.901176,73.861153 
	C19.911165,73.941422 19.749424,73.944862 19.442068,74.014572 
	C17.996338,74.458618 16.582613,77.530510 15.881142,73.372635 
	C16.261896,71.328766 16.629763,69.663116 17.321629,67.796112 
	C19.237556,61.661243 20.809629,55.722309 22.426294,49.795544 
	C24.591311,41.858475 26.790857,33.930820 28.975574,25.999125 
z"/>
<path fill="#0565B0" opacity="1.000000" stroke="none" 
	d="
M34.755310,69.597069 
	C34.808907,68.932343 34.862503,68.267609 34.977196,67.382957 
	C35.038292,67.163033 35.329193,67.127243 35.633842,67.023247 
	C36.319065,65.972610 36.699635,65.025963 37.322060,63.796257 
	C37.712818,62.019226 37.861729,60.525257 38.065163,58.780418 
	C38.190418,58.373695 38.261150,58.217842 38.672707,57.940674 
	C39.313370,56.177162 39.613213,54.534966 39.938278,52.664433 
	C39.963501,52.436096 40.105259,51.999332 40.376575,51.851456 
	C40.650925,50.774357 40.653961,49.845135 40.791817,48.602325 
	C41.144451,47.889370 41.362263,47.490002 41.881317,46.938156 
	C42.461040,45.200413 42.739521,43.615139 43.040409,41.693420 
	C43.142147,40.914902 43.221474,40.472824 43.579185,39.822136 
	C44.545910,37.030533 45.234249,34.447536 45.964783,31.556293 
	C46.132290,30.852789 46.257603,30.457535 46.717690,29.945103 
	C47.623016,27.079287 48.193577,24.330645 48.767166,21.318567 
	C48.794243,20.707127 48.818287,20.359123 48.989758,19.786087 
	C49.109966,19.383783 49.082752,19.206511 49.145554,19.059353 
	C49.235577,19.089468 49.417366,19.144196 49.749725,19.046303 
	C51.223557,17.404877 52.061169,15.399435 53.566574,14.409127 
	C57.275803,11.969072 59.892059,14.374195 60.181931,20.469027 
	C60.152111,20.655420 59.969772,20.986647 59.643326,21.040813 
	C59.267517,22.084381 59.218155,23.073782 59.098137,24.376673 
	C59.007446,25.109140 58.987415,25.528116 58.839375,26.016026 
	C58.711369,26.084959 58.455074,26.222307 58.090233,26.320755 
	C57.045395,28.837776 56.365398,31.256350 55.657738,33.797630 
	C55.630077,33.920334 55.453037,34.099068 55.097363,34.245377 
	C54.503639,35.612999 54.265594,36.834316 53.988731,38.290409 
	C53.949917,38.525188 53.720131,38.941975 53.387871,39.030205 
	C50.367104,46.064735 47.678596,53.011036 44.931000,60.176502 
	C44.771629,60.683010 44.637218,60.953377 44.095272,61.268703 
	C43.161289,62.901615 42.600712,64.472595 42.020794,66.021225 
	C42.001453,65.998886 42.047958,66.036263 41.691231,66.063255 
	C40.350079,68.251526 39.365650,70.412811 38.370850,72.711037 
	C38.360477,72.847984 38.158974,73.034660 37.885296,73.150627 
	C37.393143,73.796234 37.174667,74.325867 36.749390,74.984322 
	C36.542580,75.113136 36.107826,75.333244 35.944839,74.944046 
	C35.439674,72.902252 35.097488,71.249664 34.755310,69.597069 
z"/>
<path fill="#FCFEFE" opacity="1.000000" stroke="none" 
	d="
M47.000000,87.000000 
	C45.764042,85.820793 44.456661,84.706154 43.314281,83.442360 
	C42.365917,82.393211 41.611771,81.168503 40.385796,79.593674 
	C39.999779,77.775429 39.999557,76.385071 40.268120,74.775650 
	C41.656700,71.017036 42.776497,67.477463 43.910896,63.947166 
	C43.925499,63.956436 43.917606,63.954144 44.211979,63.794216 
	C44.995747,62.403362 45.485146,61.172436 46.015850,59.676453 
	C46.153797,59.260918 46.250439,59.110443 46.519341,58.810822 
	C46.880795,58.401825 46.955017,58.112450 46.934669,57.523495 
	C47.248226,56.813480 47.541378,56.373524 48.193325,55.911415 
	C49.050903,54.929092 49.549679,53.968922 50.397018,53.009460 
	C52.167065,53.675495 53.588543,54.340824 54.990776,55.393127 
	C52.995300,59.079620 54.596218,64.050728 50.040909,65.846420 
	C47.258255,62.885258 47.177322,66.272316 46.259666,67.263474 
	C43.915840,69.795013 46.334335,70.808777 48.001999,72.341019 
	C48.346844,73.460312 48.689693,74.238571 48.897575,75.337227 
	C48.512352,76.771843 48.262093,77.886078 47.658417,79.056198 
	C43.646053,81.603844 44.987854,84.288963 47.000000,87.000000 
z"/>
<path fill="#EEF9FD" opacity="1.000000" stroke="none" 
	d="
M48.842331,20.011116 
	C48.818287,20.359123 48.794243,20.707127 48.542221,21.389313 
	C48.314251,21.723492 47.915245,21.975704 47.659920,22.196594 
	C47.358501,23.073086 47.312412,23.728687 47.290859,24.547928 
	C47.315392,24.711571 47.177052,25.012209 46.880043,25.194744 
	C46.395756,26.259619 46.208473,27.141958 46.009270,28.014311 
	C45.997353,28.004324 46.026951,28.008276 45.749260,28.231577 
	C45.308453,29.628691 45.145336,30.802505 44.945320,32.297573 
	C44.679195,33.442619 44.449966,34.266407 43.917831,35.256859 
	C43.431755,36.304165 43.248581,37.184811 43.055256,38.059277 
	C43.045101,38.053097 43.077564,38.063553 42.824165,38.045525 
	C42.401451,38.023537 42.232136,38.019577 42.062817,38.015610 
	C40.983128,38.012486 39.903435,38.009361 38.389702,37.981472 
	C37.955662,37.956707 37.896664,37.897129 37.923279,37.557648 
	C37.935539,36.764313 37.921177,36.310463 37.906815,35.856609 
	C37.988049,35.442162 38.069279,35.027714 38.520401,34.111618 
	C39.579678,31.383892 40.269062,29.157820 40.958443,26.931746 
	C41.150787,26.133150 41.343136,25.334557 41.951393,24.100674 
	C42.537952,23.047876 42.708603,22.430367 42.879250,21.812855 
	C42.879250,21.812855 42.923504,21.388481 43.267754,20.955898 
	C43.608406,19.844917 43.604809,19.166517 43.601212,18.488117 
	C43.865364,17.882929 44.129513,17.277742 44.788273,16.289433 
	C45.126610,15.274316 45.070343,14.642323 45.014076,14.010330 
	C44.790607,13.615952 44.567139,13.221576 44.175533,12.529203 
	C45.755146,12.457495 47.502895,12.683782 49.601410,13.293153 
	C50.003796,14.145068 50.055416,14.613901 50.091354,15.066158 
	C50.075672,15.049584 50.105160,15.056439 49.841507,15.213495 
	C49.523209,15.758883 49.468559,16.147215 49.391251,16.865387 
	C49.384846,17.844881 49.401108,18.494539 49.417366,19.144196 
	C49.417366,19.144196 49.235577,19.089468 48.962769,19.112247 
	C48.610653,19.232367 48.444275,19.368237 48.467308,19.420294 
	C48.560650,19.631247 48.712238,19.816427 48.842331,20.011116 
z"/>
<path fill="#C2E3F5" opacity="1.000000" stroke="none" 
	d="
M28.655380,26.159304 
	C26.790857,33.930820 24.591311,41.858475 22.426294,49.795544 
	C20.809629,55.722309 19.237556,61.661243 17.060852,67.804657 
	C16.302158,68.011909 16.128242,68.009254 15.954325,68.006607 
	C15.955340,67.833801 15.956357,67.660995 16.176289,67.130508 
	C16.651905,66.578300 16.787775,66.320168 16.802813,65.998428 
	C17.953680,60.930923 18.941271,55.819298 20.295862,50.806847 
	C22.074228,44.226284 24.092449,37.708523 26.118578,31.198318 
	C26.645266,29.506004 27.585106,27.942272 28.655380,26.159304 
z"/>
<path fill="#EEF9FD" opacity="1.000000" stroke="none" 
	d="
M15.592096,68.045319 
	C16.128242,68.009254 16.302158,68.011909 16.736853,68.006012 
	C16.629763,69.663116 16.261896,71.328766 15.549858,73.542763 
	C14.428535,76.289444 13.651385,78.487770 12.874234,80.686089 
	C13.167714,80.873383 13.461193,81.060669 13.754672,81.247955 
	C15.490650,79.799576 17.226629,78.351204 18.962608,76.902824 
	C17.660875,79.848236 16.499531,82.872604 14.928168,85.666359 
	C14.644884,86.170013 11.744776,86.011215 11.639747,85.669914 
	C11.096150,83.903465 10.797490,81.960327 10.920767,80.112640 
	C11.129530,76.983711 11.492574,73.822296 12.267631,70.796692 
	C12.545804,69.710785 14.202382,68.977989 15.592096,68.045319 
z"/>
<path fill="#FCFEFE" opacity="1.000000" stroke="none" 
	d="
M77.000305,11.013046 
	C77.084412,10.359632 76.930153,9.466982 77.299065,9.099432 
	C78.254501,8.147516 89.569679,9.243725 90.586273,10.597654 
	C85.661446,9.417806 85.317970,12.305457 85.422653,15.784348 
	C85.416992,15.909975 85.203789,16.043394 84.800980,16.028381 
	C83.326843,15.983128 82.255501,15.952888 81.158455,15.686330 
	C81.016663,14.997107 80.900581,14.544200 80.598770,13.720611 
	C79.957176,13.061794 79.501305,12.773661 78.996307,12.208414 
	C78.298225,11.625216 77.649269,11.319131 77.000305,11.013046 
z"/>
<path fill="#FCFEFE" opacity="1.000000" stroke="none" 
	d="
M39.000000,81.000000 
	C37.232052,86.264206 33.604935,88.756386 28.479301,87.766319 
	C27.499271,87.577019 26.826059,85.799278 26.265663,84.484642 
	C27.017296,84.475136 27.514557,84.735359 28.331486,85.135574 
	C30.098959,85.183586 31.546761,85.091614 33.351475,84.960243 
	C34.472298,83.614311 35.236214,82.307762 36.247864,80.999611 
	C36.495602,80.998001 36.991085,80.995728 37.325905,80.996964 
	C38.107147,80.998802 38.553574,80.999405 39.000000,81.000000 
z"/>
<path fill="#E2F2FA" opacity="1.000000" stroke="none" 
	d="
M85.428322,15.658721 
	C85.317970,12.305457 85.661446,9.417806 90.644455,10.949171 
	C92.715134,10.978268 94.428154,10.981312 96.569092,10.972902 
	C97.643974,11.446136 98.290932,11.930826 98.488327,12.658103 
	C93.683357,13.125355 88.702026,10.488180 85.428322,15.658721 
z"/>
<path fill="#367DB2" opacity="1.000000" stroke="none" 
	d="
M34.472984,69.755020 
	C35.097488,71.249664 35.439674,72.902252 35.957718,75.295090 
	C35.198032,77.464645 34.350658,78.972038 33.230034,80.237457 
	C33.065617,80.423111 31.602358,79.458534 30.826515,78.773514 
	C30.940781,78.345009 30.968601,78.169167 31.248476,77.845062 
	C31.566994,77.137047 31.633457,76.577286 31.699921,76.017532 
	C31.757984,75.838623 31.816050,75.659714 32.202309,75.035446 
	C32.606899,73.734337 32.683300,72.878601 32.759705,72.022858 
	C33.236691,71.319557 33.713680,70.616264 34.472984,69.755020 
z"/>
<path fill="#C0E0F2" opacity="1.000000" stroke="none" 
	d="
M76.563019,11.025528 
	C77.649269,11.319131 78.298225,11.625216 78.545563,12.276722 
	C73.766663,13.073011 68.083427,10.906552 67.034676,17.709509 
	C67.024002,15.571266 67.068062,13.861487 67.420174,12.101536 
	C68.486168,11.718811 69.244125,11.386258 70.002075,11.053705 
	C72.043289,11.048472 74.084511,11.043241 76.563019,11.025528 
z"/>
<path fill="#FCFEFE" opacity="1.000000" stroke="none" 
	d="
M69.952728,10.703171 
	C69.244125,11.386258 68.486168,11.718811 67.177589,11.800049 
	C65.375404,11.386289 64.123848,11.223843 62.654259,11.059916 
	C62.436234,11.058436 62.001312,11.026888 62.001312,11.026888 
	C63.437756,6.216228 65.146469,6.070431 69.952728,10.703171 
z"/>
<path fill="#C1E2F4" opacity="1.000000" stroke="none" 
	d="
M61.667641,11.033770 
	C62.001312,11.026888 62.436234,11.058436 62.703106,11.337959 
	C63.002239,11.992308 63.034500,12.367131 62.601967,12.732405 
	C58.420460,12.810935 54.703754,12.899014 50.919704,12.912481 
	C50.852364,12.837869 50.722569,12.684375 50.722569,12.684374 
	C51.907646,12.139479 53.092724,11.594585 55.055878,11.047085 
	C57.222466,11.034071 58.610973,11.023665 59.999485,11.013258 
	C60.444313,11.022389 60.889145,11.031521 61.667641,11.033770 
z"/>
<path fill="#3377AB" opacity="1.000000" stroke="none" 
	d="
M18.990490,76.688721 
	C17.226629,78.351204 15.490650,79.799576 13.754672,81.247955 
	C13.461193,81.060669 13.167714,80.873383 12.874234,80.686089 
	C13.651385,78.487770 14.428535,76.289444 15.536969,73.920990 
	C16.582613,77.530510 17.996338,74.458618 19.430771,74.332413 
	C19.677277,75.000175 19.627728,75.419807 19.578178,75.839439 
	C19.305231,75.975075 19.118629,76.186798 18.990490,76.688721 
z"/>
<path fill="#FCFEFE" opacity="1.000000" stroke="none" 
	d="
M59.993004,10.623201 
	C58.610973,11.023665 57.222466,11.034071 55.417519,11.034416 
	C55.558968,9.716437 56.116852,8.408520 56.674732,7.100601 
	C57.778664,8.144782 58.882595,9.188963 59.993004,10.623201 
z"/>
<path fill="#FBFEFD" opacity="1.000000" stroke="none" 
	d="
M30.996422,77.993324 
	C30.968601,78.169167 30.940781,78.345009 30.541367,78.957184 
	C29.450455,81.260880 28.731136,83.128227 28.011818,84.995583 
	C27.514557,84.735359 27.017296,84.475136 26.260017,84.107452 
	C25.933367,80.801086 26.577608,78.026459 30.563999,77.251404 
	C30.970259,77.658363 30.983341,77.825844 30.996422,77.993324 
z"/>
<path fill="#FBFEFD" opacity="1.000000" stroke="none" 
	d="
M47.333309,87.000000 
	C44.987854,84.288963 43.646053,81.603844 47.655060,79.387115 
	C47.982738,80.102806 47.960354,80.543472 47.682632,81.216019 
	C47.952026,82.640862 48.476761,83.833817 49.001495,85.026772 
	C49.001038,85.465263 49.000584,85.903763 48.999985,86.671127 
	C48.555439,87.000000 48.111027,87.000000 47.333309,87.000000 
z"/>
<path fill="#EEF9FD" opacity="1.000000" stroke="none" 
	d="
M42.014587,11.788885 
	C40.693584,12.244034 39.321636,12.377844 37.524353,12.202021 
	C37.016327,11.635359 36.973743,11.371851 36.971272,11.101863 
	C38.635395,11.223758 40.299522,11.345652 42.014587,11.788885 
z"/>
<path fill="#EEF9FD" opacity="1.000000" stroke="none" 
	d="
M32.715866,12.875862 
	C32.925583,13.455820 32.828411,13.900769 32.261101,14.733788 
	C31.241346,16.085218 30.691734,17.048578 30.142120,18.011938 
	C29.135983,14.363438 29.699780,13.052448 32.715866,12.875862 
z"/>
<path fill="#FBFEFD" opacity="1.000000" stroke="none" 
	d="
M39.108154,80.780838 
	C38.553574,80.999405 38.107147,80.998802 37.331436,80.635376 
	C38.001217,78.513268 39.000275,76.753983 39.999332,74.994705 
	C39.999557,76.385071 39.999779,77.775429 40.000000,79.582901 
	C39.677048,80.101112 39.415817,80.288338 39.108154,80.780838 
z"/>
<path fill="#EEF9FD" opacity="1.000000" stroke="none" 
	d="
M20.018335,75.875961 
	C19.627728,75.419807 19.677277,75.000175 19.738125,74.262703 
	C19.749424,73.944862 19.911165,73.941422 20.176439,73.764343 
	C20.618946,73.058472 20.796181,72.529686 20.973415,72.000893 
	C21.392033,71.556068 21.810648,71.111244 22.507727,70.538399 
	C22.469446,72.438660 24.628178,75.514206 20.018335,75.875961 
z"/>
<path fill="#EEF9FD" opacity="1.000000" stroke="none" 
	d="
M23.333008,69.956367 
	C22.971218,69.582901 22.994312,69.166908 23.335009,68.293297 
	C24.378176,66.783463 25.103739,65.731247 25.829300,64.679024 
	C25.125496,66.423958 24.421694,68.168900 23.333008,69.956367 
z"/>
<path fill="#367DB2" opacity="1.000000" stroke="none" 
	d="
M39.913055,52.892769 
	C39.613213,54.534966 39.313370,56.177162 38.593487,57.561291 
	C38.113834,56.532776 38.054226,55.762333 37.994614,54.991886 
	C38.260902,54.499683 38.527191,54.007481 39.121120,53.238571 
	C39.448761,52.961861 39.913055,52.892769 39.913055,52.892769 
z"/>
<path fill="#EEF9FD" opacity="1.000000" stroke="none" 
	d="
M39.065357,48.004478 
	C39.496094,46.475868 39.926826,44.947262 40.779873,43.272896 
	C41.202187,43.127140 41.572006,43.203571 41.491135,43.551285 
	C41.300411,44.603970 41.190559,45.308937 40.830559,46.158550 
	C40.075390,46.870285 39.570374,47.437382 39.065357,48.004478 
z"/>
<path fill="#3377AB" opacity="1.000000" stroke="none" 
	d="
M25.839302,64.489227 
	C25.103739,65.731247 24.378176,66.783463 23.364510,67.979782 
	C23.759262,66.457916 24.442116,64.791939 25.540258,63.311760 
	C26.005123,63.670879 26.054697,63.844200 26.104269,64.017517 
	C26.104269,64.017517 25.849304,64.299431 25.839302,64.489227 
z"/>
<path fill="#BDDFF1" opacity="1.000000" stroke="none" 
	d="
M30.124134,18.439896 
	C30.691734,17.048578 31.241346,16.085218 32.046837,15.005053 
	C31.876686,16.637022 31.450659,18.385798 30.747078,20.333111 
	C30.348400,19.977049 30.227274,19.422451 30.124134,18.439896 
z"/>
<path fill="#C1E2F4" opacity="1.000000" stroke="none" 
	d="
M39.034843,48.419022 
	C39.570374,47.437382 40.075390,46.870285 40.951439,46.429619 
	C41.408340,46.734245 41.494209,46.912437 41.580078,47.090633 
	C41.362263,47.490002 41.144451,47.889370 40.549618,48.831383 
	C40.150150,50.249126 40.127705,51.124229 40.105259,51.999332 
	C40.105259,51.999332 39.963501,52.436096 39.938278,52.664433 
	C39.913055,52.892769 39.448761,52.961861 39.214302,52.974693 
	C38.988007,51.602871 38.996170,50.218220 39.034843,48.419022 
z"/>
<path fill="#BDDFF1" opacity="1.000000" stroke="none" 
	d="
M36.649292,11.089782 
	C36.973743,11.371851 37.016327,11.635359 37.119831,12.092445 
	C36.328571,12.431567 35.516499,12.570629 34.293175,12.626625 
	C34.697052,12.054939 35.512180,11.566319 36.649292,11.089782 
z"/>
<path fill="#EAF7FC" opacity="1.000000" stroke="none" 
	d="
M35.136681,62.070999 
	C35.387630,61.435364 35.638577,60.799728 36.308136,60.409763 
	C36.736881,60.942955 36.820019,61.207592 36.829277,61.595444 
	C36.583843,62.055801 36.677719,62.294266 36.767685,62.680801 
	C36.430607,63.042854 36.289883,63.181030 36.067585,63.050491 
	C35.702904,62.544849 35.419796,62.307922 35.136681,62.070999 
z"/>
<path fill="#367DB2" opacity="1.000000" stroke="none" 
	d="
M36.964035,62.456924 
	C36.677719,62.294266 36.583843,62.055801 36.772156,61.291733 
	C36.916439,60.647476 36.970966,60.453026 37.025494,60.258575 
	C37.000275,60.057117 36.975052,59.855656 37.231407,59.339783 
	C37.512981,59.025368 38.010639,59.031288 38.010639,59.031288 
	C37.861729,60.525257 37.712818,62.019226 37.260818,63.734398 
	C36.957722,63.955601 36.837147,63.832489 36.852119,63.487053 
	C36.899410,62.913387 36.931721,62.685154 36.964035,62.456924 
z"/>
<path fill="#EEF9FD" opacity="1.000000" stroke="none" 
	d="
M26.417580,63.969826 
	C26.054697,63.844200 26.005123,63.670879 25.878052,63.238518 
	C26.015139,62.721630 26.229725,62.463772 26.931789,62.093948 
	C27.608011,61.980072 27.796755,61.978168 27.985498,61.976269 
	C27.567295,62.624893 27.149092,63.273514 26.417580,63.969826 
z"/>
<path fill="#EEF9FD" opacity="1.000000" stroke="none" 
	d="
M32.813435,48.799484 
	C33.092064,49.528881 33.340656,50.219181 33.273964,50.576790 
	C32.869640,49.761494 32.780594,49.278881 32.691547,48.796268 
	C32.691547,48.796268 32.783398,48.760387 32.813435,48.799484 
z"/>
<path fill="#C1E2F4" opacity="1.000000" stroke="none" 
	d="
M38.065163,58.780418 
	C38.010639,59.031288 37.512981,59.025368 37.264336,59.037022 
	C37.159035,57.853775 37.302376,56.658871 37.720169,55.227928 
	C38.054226,55.762333 38.113834,56.532776 38.252666,57.682606 
	C38.261150,58.217842 38.190418,58.373695 38.065163,58.780418 
z"/>
<path fill="#C1E2F4" opacity="1.000000" stroke="none" 
	d="
M42.043053,38.398384 
	C42.232136,38.019577 42.401451,38.023537 42.848930,38.376621 
	C43.185001,39.160748 43.242901,39.595749 43.300800,40.030750 
	C43.221474,40.472824 43.142147,40.914902 42.843304,41.737389 
	C42.623791,42.117805 42.246723,42.262375 42.142002,42.155525 
	C42.037281,42.048679 41.824085,41.838726 41.824085,41.838726 
	C41.890488,40.819534 41.956886,39.800343 42.043053,38.398384 
z"/>
<path fill="#C1E2F4" opacity="1.000000" stroke="none" 
	d="
M35.093800,62.416046 
	C35.419796,62.307922 35.702904,62.544849 36.194756,63.176163 
	C36.403496,63.570557 36.568089,63.888645 36.326378,64.084450 
	C35.796959,64.577751 35.509243,64.875252 35.115276,65.089081 
	C35.009026,65.005417 34.796494,64.838120 34.796494,64.838120 
	C34.881302,64.145775 34.966106,63.453434 35.093800,62.416046 
z"/>
<path fill="#EAF7FC" opacity="1.000000" stroke="none" 
	d="
M32.544708,72.249008 
	C32.683300,72.878601 32.606899,73.734337 32.249733,74.757317 
	C32.089218,74.108086 32.209465,73.291626 32.544708,72.249008 
z"/>
<path fill="#EAF7FC" opacity="1.000000" stroke="none" 
	d="
M31.248476,77.845062 
	C30.983341,77.825844 30.970259,77.658363 30.929554,77.240219 
	C31.003611,76.718155 31.152941,76.476166 31.524921,76.140564 
	C31.633457,76.577286 31.566994,77.137047 31.248476,77.845062 
z"/>
<path fill="#C1E2F4" opacity="1.000000" stroke="none" 
	d="
M50.107037,15.082733 
	C50.055416,14.613901 50.003796,14.145068 49.935982,13.321770 
	C49.919796,12.967303 50.333500,12.859312 50.528034,12.771843 
	C50.722569,12.684375 50.852364,12.837869 50.863396,13.201063 
	C50.618629,14.070415 50.362835,14.576574 50.107037,15.082733 
z"/>
<path fill="#C1E2F4" opacity="1.000000" stroke="none" 
	d="
M34.943840,67.050980 
	C34.721531,66.372162 34.593674,65.805397 34.631157,65.038376 
	C34.796494,64.838120 35.009026,65.005417 35.106316,65.417297 
	C35.245468,66.261871 35.287331,66.694557 35.329193,67.127243 
	C35.329193,67.127243 35.038292,67.163033 34.943840,67.050980 
z"/>
<path fill="#BDDFF1" opacity="1.000000" stroke="none" 
	d="
M35.321217,42.929302 
	C35.135098,42.405365 35.187160,41.782692 35.569756,41.031914 
	C35.900284,40.903816 36.157429,41.148808 36.134796,41.362015 
	C36.112160,41.575218 36.157703,42.001598 36.157703,42.001598 
	C35.958271,42.277920 35.758839,42.554241 35.321217,42.929302 
z"/>
<path fill="#C2E3F5" opacity="1.000000" stroke="none" 
	d="
M30.148090,22.060244 
	C30.063614,22.715000 29.979137,23.369759 29.646351,24.256706 
	C29.284990,23.957163 29.171936,23.425430 29.326180,22.468994 
	C29.778347,22.049608 29.963219,22.054926 30.148090,22.060244 
z"/>
<path fill="#BDDFF1" opacity="1.000000" stroke="none" 
	d="
M34.080406,45.784325 
	C33.943478,45.324928 34.109127,44.716164 34.558052,43.940426 
	C34.688545,44.393955 34.535763,45.014454 34.080406,45.784325 
z"/>
<path fill="#BDDFF1" opacity="1.000000" stroke="none" 
	d="
M32.438721,48.974075 
	C32.780594,49.278881 32.869640,49.761494 32.964737,50.613010 
	C32.786713,50.987885 32.602638,50.993851 32.143955,50.968346 
	C31.974865,50.341869 32.080383,49.746876 32.438721,48.974075 
z"/>
<path fill="#BDDFF1" opacity="1.000000" stroke="none" 
	d="
M29.148949,57.794960 
	C28.988768,57.343040 29.121698,56.717934 29.520912,55.900414 
	C29.672152,56.345924 29.557106,56.983845 29.148949,57.794960 
z"/>
<path fill="#EEF9FD" opacity="1.000000" stroke="none" 
	d="
M30.222809,21.795376 
	C29.963219,22.054926 29.778347,22.049608 29.316803,22.059849 
	C29.249399,21.778929 29.458666,21.482450 29.928570,21.088417 
	C30.225315,21.170742 30.261421,21.350624 30.222809,21.795376 
z"/>
<path fill="#BDDFF1" opacity="1.000000" stroke="none" 
	d="
M35.771133,40.781929 
	C35.792480,40.363419 35.942986,40.066792 36.310738,39.642189 
	C36.632095,39.747936 36.736206,39.981655 36.701969,40.620708 
	C36.563625,41.026047 36.157429,41.148808 36.157429,41.148808 
	C36.157429,41.148808 35.900284,40.903816 35.771133,40.781929 
z"/>
<path fill="#EEF9FD" opacity="1.000000" stroke="none" 
	d="
M36.134796,41.362015 
	C36.157429,41.148808 36.563625,41.026047 36.773788,40.997715 
	C36.919556,41.279121 36.770054,41.540058 36.346573,41.876892 
	C36.157703,42.001598 36.112160,41.575218 36.134796,41.362015 
z"/>
<path fill="#C1E2F4" opacity="1.000000" stroke="none" 
	d="
M41.025787,43.059811 
	C41.049294,42.720882 41.249203,42.449287 41.636600,42.008209 
	C41.824085,41.838726 42.037281,42.048679 42.081314,42.346237 
	C42.012497,42.901161 41.828049,43.087753 41.572006,43.203571 
	C41.572006,43.203571 41.202187,43.127140 41.025787,43.059811 
z"/>
<path fill="#EEF9FD" opacity="1.000000" stroke="none" 
	d="
M37.096401,38.918304 
	C36.808262,38.832458 36.770184,38.654774 37.054455,38.213181 
	C37.550091,37.931892 37.723377,37.914513 37.896664,37.897129 
	C37.896664,37.897129 37.955662,37.956707 37.984852,37.987137 
	C37.791515,38.287205 37.568993,38.556835 37.096401,38.918304 
z"/>
<path fill="#BDDFF1" opacity="1.000000" stroke="none" 
	d="
M31.127594,52.789600 
	C30.937941,52.561367 31.023674,52.195873 31.349995,51.666817 
	C31.528046,51.886284 31.465513,52.269310 31.127594,52.789600 
z"/>
<path fill="#BDDFF1" opacity="1.000000" stroke="none" 
	d="
M28.084766,59.810413 
	C27.906301,59.567509 28.015276,59.199322 28.380394,58.679596 
	C28.548426,58.913754 28.460316,59.299438 28.084766,59.810413 
z"/>
<path fill="#0565B0" opacity="1.000000" stroke="none" 
	d="
M36.907356,60.270779 
	C36.970966,60.453026 36.916439,60.647476 36.919029,61.145641 
	C36.820019,61.207592 36.736881,60.942955 36.639221,60.470081 
	C36.551701,60.284729 36.789223,60.282982 36.907356,60.270779 
z"/>
<path fill="#BDDFF1" opacity="1.000000" stroke="none" 
	d="
M27.912758,61.599155 
	C27.796755,61.978168 27.608011,61.980072 27.137920,61.949593 
	C26.946251,61.573303 27.035931,61.229401 27.325945,60.703205 
	C27.630859,60.754623 27.735439,60.988335 27.912758,61.599155 
z"/>
<path fill="#EEF9FD" opacity="1.000000" stroke="none" 
	d="
M16.623775,66.119873 
	C16.787775,66.320168 16.651905,66.578300 16.192451,66.871803 
	C16.072989,66.684921 16.224669,66.441772 16.623775,66.119873 
z"/>
<path fill="#106BB1" opacity="1.000000" stroke="none" 
	d="
M85.422653,15.784348 
	C88.702026,10.488180 93.683357,13.125355 98.487274,12.991146 
	C98.881554,13.490891 98.827339,13.900182 98.488068,14.823046 
	C96.772606,19.887924 95.342216,24.439230 93.911819,28.990536 
	C93.579453,29.765739 93.247086,30.540945 92.691391,31.753635 
	C92.249573,32.449818 92.031075,32.708515 91.468277,33.061409 
	C90.790489,34.500019 90.457008,35.844433 90.103058,37.403072 
	C90.082581,37.617298 89.889381,38.001904 89.623062,38.209785 
	C89.041145,39.484520 88.725548,40.551376 88.427704,41.739845 
	C88.445473,41.861458 88.297958,42.058086 87.978653,42.227207 
	C87.467262,43.310219 87.275169,44.224113 87.053551,45.453629 
	C87.052231,46.184956 87.080429,46.600651 87.108627,47.016350 
	C86.900276,47.268425 86.772743,47.556301 86.570091,48.106560 
	C86.414169,48.333138 86.064072,48.367054 85.997040,48.153370 
	C85.703720,48.427299 85.477417,48.914913 85.259407,49.562817 
	C85.267700,49.723106 85.116974,50.006531 84.840767,50.197197 
	C84.370285,51.240387 84.176010,52.092907 83.925385,53.280571 
	C83.861549,54.061687 83.854065,54.507668 83.846588,54.953644 
	C83.846588,54.953644 83.499802,55.243591 83.232407,55.142776 
	C82.778786,55.557106 82.592552,56.072250 82.406326,56.587395 
	C82.406326,56.587395 82.476219,56.868217 82.292542,57.161724 
	C82.006035,57.623310 81.903206,57.791386 81.463272,58.045113 
	C80.458557,59.827763 79.790962,61.524757 79.085251,63.485962 
	C78.821976,64.225693 78.596802,64.701218 78.055618,65.278320 
	C77.619881,65.783356 77.500160,66.186798 77.396820,66.714478 
	C77.413193,66.838707 77.250137,67.029015 76.946129,67.185928 
	C76.470062,67.973328 76.298012,68.603821 76.073227,69.529564 
	C75.997887,70.218842 75.975281,70.612869 75.952667,71.006889 
	C75.952667,71.006889 75.730370,71.182983 75.491920,71.480629 
	C75.113091,72.156548 74.972710,72.534813 74.832329,72.913086 
	C74.832329,72.913086 74.931702,72.926323 74.662659,72.979218 
	C74.319595,73.353706 74.245575,73.675285 74.171555,73.996872 
	C74.171555,73.996872 73.878502,74.239571 73.597153,74.560425 
	C73.188217,75.244080 73.060623,75.606895 72.933037,75.969704 
	C72.933037,75.969704 73.002655,75.980164 72.780060,75.966225 
	C72.557472,75.952286 72.182022,76.079948 71.907661,76.171661 
	C71.401337,76.769356 71.169365,77.275345 70.787460,77.909042 
	C70.637520,78.036736 70.266724,78.169685 69.685455,78.055832 
	C68.717537,77.861877 68.330872,77.781769 68.021667,77.331970 
	C68.636162,75.285255 69.173203,73.608215 70.034805,71.741829 
	C70.392143,70.844467 70.424934,70.136452 70.445068,69.152405 
	C70.370720,68.525208 70.309013,68.174057 70.247307,67.822899 
	C70.247307,67.822899 70.525345,67.914696 70.865234,67.878067 
	C71.295586,67.750336 71.478409,67.605553 71.461685,67.576775 
	C71.343910,67.374184 71.185066,67.195473 71.039345,67.009132 
	C71.012840,66.836906 70.986336,66.664680 71.082535,65.948959 
	C71.561226,63.916340 71.917206,62.427227 72.273193,60.938110 
	C72.453743,60.508057 72.634285,60.078003 73.098328,59.064972 
	C73.967316,56.577911 74.608261,54.688850 75.128685,52.767147 
	C77.365311,44.508137 79.566513,36.239532 81.780624,27.974424 
	C81.780624,27.974424 82.013359,27.542419 82.323669,27.119623 
	C82.929810,25.117535 83.225647,23.538244 83.521484,21.958954 
	C83.633156,21.804632 83.744820,21.650307 84.229446,21.013632 
	C84.802856,19.035320 85.003326,17.539358 85.203789,16.043394 
	C85.203789,16.043394 85.416992,15.909975 85.422653,15.784348 
z"/>
<path fill="#0465B1" opacity="1.000000" stroke="none" 
	d="
M77.371414,22.807085 
	C77.371414,22.807085 77.353371,22.919380 76.994308,23.123482 
	C75.687340,26.157951 74.739433,28.988323 73.527771,32.053871 
	C72.058090,36.124107 70.852150,39.959167 69.646202,43.794228 
	C69.646202,43.794228 69.654640,43.968922 69.225296,44.121632 
	C68.228653,46.247971 67.661339,48.221596 67.016235,50.499496 
	C66.784721,51.193657 66.631012,51.583546 66.151459,52.046730 
	C64.596489,55.168774 63.367352,58.217522 62.071236,61.453430 
	C62.004257,61.640594 61.740093,61.938725 61.425468,62.014492 
	C60.732063,63.027164 60.353279,63.964066 59.714401,65.120285 
	C59.301094,66.224014 59.147877,67.108429 58.994667,67.992844 
	C58.994667,67.992844 58.999847,68.000000 58.666206,68.101883 
	C56.803577,70.446663 55.274590,72.689568 53.745602,74.932465 
	C53.225750,74.776291 52.705898,74.620110 52.186047,74.463928 
	C52.840775,66.710075 56.778339,59.634331 58.480186,51.928047 
	C58.955730,49.890350 59.089111,47.950706 59.201904,45.821976 
	C59.181316,45.632893 59.164425,45.252861 59.444321,45.079201 
	C59.944122,44.289433 60.164024,43.673321 60.712074,42.945339 
	C61.340057,41.528835 61.639893,40.224201 61.920937,38.579773 
	C61.792980,37.807106 61.683815,37.374233 61.676872,36.937149 
	C61.779099,36.932934 61.975430,36.990589 62.245979,36.812546 
	C62.644192,36.018784 62.771851,35.403065 62.986309,34.443672 
	C63.224163,33.408035 63.375221,32.716076 63.857040,31.940691 
	C65.773895,27.591936 67.148827,23.229864 69.039108,19.103897 
	C69.925209,17.169783 71.487831,14.971951 73.306831,14.168982 
	C76.276337,12.858136 78.219933,14.780995 78.852890,18.133888 
	C78.737381,18.597137 78.662201,18.774399 78.236603,19.089684 
	C77.714607,20.420835 77.543007,21.613960 77.371414,22.807085 
z"/>
<path fill="#C5E4F7" opacity="1.000000" stroke="none" 
	d="
M58.138020,52.026096 
	C56.778339,59.634331 52.840775,66.710075 52.186047,74.463928 
	C52.705898,74.620110 53.225750,74.776291 53.745602,74.932465 
	C55.274590,72.689568 56.803577,70.446663 58.662453,68.099579 
	C59.009434,68.747177 59.026527,69.498947 58.804962,70.736061 
	C58.296482,71.429848 58.132881,71.702126 58.075504,72.038239 
	C55.492447,75.832901 52.909386,79.627556 49.902412,83.553253 
	C48.964985,82.784241 48.451477,81.884186 47.937969,80.984131 
	C47.960354,80.543472 47.982738,80.102806 48.008480,79.331223 
	C48.262093,77.886078 48.512352,76.771843 49.152496,75.125427 
	C49.681000,73.727798 49.819622,72.862358 49.991409,71.578064 
	C50.053856,69.498970 50.083138,67.838722 50.112419,66.178482 
	C54.596218,64.050728 52.995300,59.079620 55.257427,55.156559 
	C56.300205,52.341091 57.057083,50.149162 57.876225,48.362457 
	C58.004997,49.853817 58.071510,50.939957 58.138020,52.026096 
M50.502361,78.406128 
	C50.502361,78.406128 50.574677,78.528839 50.502361,78.406128 
z"/>
<path fill="#E2F2FA" opacity="1.000000" stroke="none" 
	d="
M81.434875,28.058594 
	C79.566513,36.239532 77.365311,44.508137 75.128685,52.767147 
	C74.608261,54.688850 73.967316,56.577911 73.092758,58.711273 
	C73.667206,54.387627 74.237732,49.753788 75.467110,45.301884 
	C77.067459,39.506611 79.190826,33.855762 81.434875,28.058594 
z"/>
<path fill="#E2F2FA" opacity="1.000000" stroke="none" 
	d="
M69.710243,71.931175 
	C69.173203,73.608215 68.636162,75.285255 67.775429,77.414581 
	C66.965218,78.569557 66.478706,79.272240 65.992195,79.974930 
	C65.999489,78.915245 66.006790,77.855553 66.015022,76.025856 
	C66.022697,74.511581 66.029434,73.767311 66.036163,73.023048 
	C67.221611,71.338448 68.407066,69.653854 69.919907,67.896072 
	C70.309013,68.174057 70.370720,68.525208 70.218521,69.407379 
	C69.906502,70.602661 69.808372,71.266914 69.710243,71.931175 
z"/>
<path fill="#E2F2FA" opacity="1.000000" stroke="none" 
	d="
M94.278938,28.947765 
	C95.342216,24.439230 96.772606,19.887924 98.493027,15.132648 
	C97.404053,19.587450 96.025055,24.246222 94.278938,28.947765 
z"/>
<path fill="#FEFFFE" opacity="1.000000" stroke="none" 
	d="
M65.762306,72.838501 
	C66.029434,73.767311 66.022697,74.511581 66.014626,75.628433 
	C64.692108,76.533722 63.370930,77.066422 60.675655,78.153152 
	C61.397121,75.632172 61.769276,73.837555 62.519184,72.217834 
	C62.638470,71.960190 64.456032,72.488831 65.762306,72.838501 
z"/>
<path fill="#E2F2FA" opacity="1.000000" stroke="none" 
	d="
M70.266724,78.169685 
	C70.266724,78.169685 70.637520,78.036736 71.008980,77.951752 
	C71.380440,77.866768 71.829994,77.830658 71.903061,77.897995 
	C71.976120,77.965332 72.127556,78.093994 72.127556,78.093994 
	C71.219948,80.010590 70.649963,82.237679 69.279114,83.728233 
	C68.446335,84.633743 66.376411,84.401482 64.862251,84.680336 
	C65.050041,83.884895 65.237831,83.089447 66.084778,82.176880 
	C67.918198,80.763069 69.092461,79.466377 70.266724,78.169685 
z"/>
<path fill="#2E78AF" opacity="1.000000" stroke="none" 
	d="
M69.906479,43.636314 
	C70.852150,39.959167 72.058090,36.124107 73.614456,32.129005 
	C73.964882,31.968967 74.135033,32.122871 74.130615,32.446815 
	C74.162842,33.196548 74.199493,33.622341 74.236145,34.048130 
	C74.236145,34.048130 74.057327,34.501694 73.749092,34.937305 
	C73.233429,36.239452 73.026001,37.105988 72.818573,37.972527 
	C72.688995,38.285595 72.559418,38.598663 72.213516,39.354332 
	C71.900414,40.149620 71.803635,40.502312 71.706856,40.855003 
	C71.193489,41.729469 70.680122,42.603935 69.906479,43.636314 
z"/>
<path fill="#2E78AF" opacity="1.000000" stroke="none" 
	d="
M62.138214,61.266266 
	C63.367352,58.217522 64.596489,55.168774 66.210876,52.300270 
	C66.655174,52.643776 66.714226,52.807041 66.773285,52.970310 
	C65.618866,55.495796 64.464439,58.021282 62.961662,60.891933 
	C62.613308,61.237103 62.138214,61.266266 62.138214,61.266266 
z"/>
<path fill="#E2F2FA" opacity="1.000000" stroke="none" 
	d="
M84.800980,16.028381 
	C85.003326,17.539358 84.802856,19.035320 84.281143,20.732616 
	C82.899269,20.067041 81.838654,19.200130 80.370689,18.120453 
	C79.963348,17.907682 79.676025,17.786007 79.764221,17.569162 
	C79.852417,17.352318 80.160980,17.000105 80.381470,16.876143 
	C80.796021,16.475670 80.990097,16.199160 81.184166,15.922647 
	C82.255501,15.952888 83.326843,15.983128 84.800980,16.028381 
z"/>
<path fill="#E2F2FA" opacity="1.000000" stroke="none" 
	d="
M89.889381,38.001904 
	C89.889381,38.001904 90.082581,37.617298 90.382996,37.209084 
	C91.059799,35.522984 91.436195,34.245098 91.812584,32.967213 
	C92.031075,32.708515 92.249573,32.449818 92.694916,32.076950 
	C92.179977,34.537514 91.438194,37.112247 90.347519,39.516769 
	C89.962204,38.898338 89.925797,38.450123 89.889381,38.001904 
z"/>
<path fill="#2E78AF" opacity="1.000000" stroke="none" 
	d="
M73.878204,31.893829 
	C74.739433,28.988323 75.687340,26.157951 76.972855,23.176144 
	C77.218040,24.035786 77.125626,25.046864 76.674988,26.644444 
	C76.158752,28.132656 76.000748,29.034370 75.842758,29.936085 
	C75.576103,30.424889 75.309448,30.913691 74.787781,31.695213 
	C74.532768,31.987936 74.135033,32.122871 74.135033,32.122871 
	C74.135033,32.122871 73.964882,31.968967 73.878204,31.893829 
z"/>
<path fill="#E2F2FA" opacity="1.000000" stroke="none" 
	d="
M78.371635,65.176743 
	C78.596802,64.701218 78.821976,64.225693 79.314194,63.471848 
	C79.581245,63.193527 80.040192,63.197475 80.040192,63.197475 
	C79.337029,65.124031 78.633873,67.050583 77.533478,69.049881 
	C77.136238,69.122620 77.033302,69.030029 77.087662,68.697662 
	C77.178062,67.919876 77.214104,67.474442 77.250137,67.029015 
	C77.250137,67.029015 77.413193,66.838707 77.646706,66.545517 
	C78.044022,65.893806 78.207832,65.535271 78.371635,65.176743 
z"/>
<path fill="#2E78AF" opacity="1.000000" stroke="none" 
	d="
M67.094032,50.195225 
	C67.661339,48.221596 68.228653,46.247971 69.207954,44.207340 
	C69.420143,45.185783 69.220329,46.231224 68.699448,47.738209 
	C68.271942,48.808849 68.165504,49.417950 68.059067,50.027050 
	C68.059074,50.027050 67.994843,50.026295 67.783592,50.083595 
	C67.572342,50.140900 67.094032,50.195225 67.094032,50.195225 
z"/>
<path fill="#3E81B4" opacity="1.000000" stroke="none" 
	d="
M80.147263,62.917458 
	C80.040192,63.197475 79.581245,63.193527 79.352310,63.207642 
	C79.790962,61.524757 80.458557,59.827763 81.575874,58.298149 
	C82.081070,58.641605 82.136536,58.817677 82.192009,58.993752 
	C82.192009,58.993752 81.946861,59.312424 81.662354,59.646194 
	C81.255890,60.323586 81.133926,60.667210 81.011978,61.010834 
	C80.759422,61.553040 80.506874,62.095242 80.147263,62.917458 
z"/>
<path fill="#E2F2FA" opacity="1.000000" stroke="none" 
	d="
M87.463547,46.942352 
	C87.080429,46.600651 87.052231,46.184956 87.343613,45.253864 
	C87.874786,43.845009 88.086372,42.951550 88.297958,42.058086 
	C88.297958,42.058086 88.445473,41.861458 88.672806,41.597446 
	C89.213905,41.127373 89.527679,40.921314 89.841446,40.715256 
	C89.167122,42.766285 88.492798,44.817318 87.463547,46.942352 
z"/>
<path fill="#4484B3" opacity="1.000000" stroke="none" 
	d="
M69.685455,78.055832 
	C69.092461,79.466377 67.918198,80.763069 66.390991,82.025208 
	C66.005981,81.543259 65.973923,81.095863 65.967026,80.311707 
	C66.478706,79.272240 66.965218,78.569557 67.697975,77.784264 
	C68.330872,77.781769 68.717537,77.861877 69.685455,78.055832 
z"/>
<path fill="#E2F2FA" opacity="1.000000" stroke="none" 
	d="
M83.193497,22.082325 
	C83.225647,23.538244 82.929810,25.117535 82.328667,26.874321 
	C82.304077,25.436441 82.584793,23.821070 83.193497,22.082325 
z"/>
<path fill="#E2F2FA" opacity="1.000000" stroke="none" 
	d="
M71.979202,61.037121 
	C71.917206,62.427227 71.561226,63.916340 71.021027,65.694916 
	C71.119614,64.368301 71.402412,62.752216 71.979202,61.037121 
z"/>
<path fill="#C5E4F7" opacity="1.000000" stroke="none" 
	d="
M59.345470,67.964333 
	C59.147877,67.108429 59.301094,66.224014 59.998581,65.105774 
	C60.988453,64.523415 61.434044,64.174881 61.879631,63.826332 
	C61.151848,65.196159 60.424061,66.565994 59.345470,67.964333 
z"/>
<path fill="#E2F2FA" opacity="1.000000" stroke="none" 
	d="
M47.682632,81.216019 
	C48.451477,81.884186 48.964985,82.784241 49.741489,83.847588 
	C49.898640,84.333237 49.708893,84.594704 49.218372,84.911026 
	C48.476761,83.833817 47.952026,82.640862 47.682632,81.216019 
z"/>
<path fill="#2E78AF" opacity="1.000000" stroke="none" 
	d="
M77.500885,22.885639 
	C77.543007,21.613960 77.714607,20.420835 78.315933,19.430769 
	C78.824394,20.093281 78.903122,20.552736 78.981850,21.012192 
	C78.981850,21.012192 78.819916,21.324863 78.488510,21.776829 
	C78.079697,22.497477 78.002289,22.766157 77.924881,23.034840 
	C77.924881,23.034840 77.630356,22.964191 77.500885,22.885639 
z"/>
<path fill="#2E78AF" opacity="1.000000" stroke="none" 
	d="
M61.906483,63.618744 
	C61.434044,64.174881 60.988453,64.523415 60.258678,64.886459 
	C60.353279,63.964066 60.732063,63.027164 61.501183,62.290501 
	C61.959446,62.668861 62.027370,62.846985 62.095299,63.025108 
	C62.095299,63.025108 61.933331,63.411148 61.906483,63.618744 
z"/>
<path fill="#E2F2FA" opacity="1.000000" stroke="none" 
	d="
M85.116974,50.006531 
	C85.116974,50.006531 85.267700,49.723106 85.535759,49.361328 
	C85.890572,48.788715 85.977318,48.577885 86.064072,48.367054 
	C86.064072,48.367054 86.414169,48.333138 86.589127,48.344318 
	C86.424492,49.421635 86.084892,50.487770 85.469223,51.458771 
	C85.167763,50.911266 85.142372,50.458900 85.116974,50.006531 
z"/>
<path fill="#3F83B6" opacity="1.000000" stroke="none" 
	d="
M89.856567,40.525528 
	C89.527679,40.921314 89.213905,41.127373 88.655037,41.475834 
	C88.725548,40.551376 89.041145,39.484520 89.623062,38.209785 
	C89.925797,38.450123 89.962204,38.898338 90.041519,39.683342 
	C90.084419,40.020123 89.871696,40.335796 89.856567,40.525528 
z"/>
<path fill="#C2E3F5" opacity="1.000000" stroke="none" 
	d="
M76.144951,29.748314 
	C76.000748,29.034370 76.158752,28.132656 76.597504,27.020033 
	C76.734543,27.726265 76.590843,28.643404 76.144951,29.748314 
z"/>
<path fill="#C2E3F5" opacity="1.000000" stroke="none" 
	d="
M73.120346,37.798943 
	C73.026001,37.105988 73.233429,36.239452 73.721458,35.179504 
	C73.808746,35.865845 73.615425,36.745602 73.120346,37.798943 
z"/>
<path fill="#C2E3F5" opacity="1.000000" stroke="none" 
	d="
M79.243385,20.808710 
	C78.903122,20.552736 78.824394,20.093281 78.666336,19.292744 
	C78.662201,18.774399 78.737381,18.597137 79.048897,18.121452 
	C79.285225,17.823027 79.676025,17.786007 79.676025,17.786007 
	C79.676025,17.786007 79.963348,17.907682 80.100395,17.985674 
	C79.993271,18.910852 79.749092,19.758041 79.243385,20.808710 
z"/>
<path fill="#3F83B6" opacity="1.000000" stroke="none" 
	d="
M84.840767,50.197197 
	C85.142372,50.458900 85.167763,50.911266 85.235977,51.702587 
	C85.278801,52.041538 85.015564,52.419846 84.738770,52.665825 
	C84.461975,52.911800 83.981728,52.945427 83.981735,52.945427 
	C84.176010,52.092907 84.370285,51.240387 84.840767,50.197197 
z"/>
<path fill="#C2E3F5" opacity="1.000000" stroke="none" 
	d="
M67.016235,50.499496 
	C67.094032,50.195225 67.572342,50.140900 67.809937,50.102005 
	C67.826378,50.924953 67.605240,51.786793 67.078690,52.809471 
	C66.714226,52.807041 66.655174,52.643776 66.536713,52.226974 
	C66.631012,51.583546 66.784721,51.193657 67.016235,50.499496 
z"/>
<path fill="#C2E3F5" opacity="1.000000" stroke="none" 
	d="
M62.325645,62.876438 
	C62.027370,62.846985 61.959446,62.668861 61.815807,62.214733 
	C61.740093,61.938725 62.004257,61.640594 62.071236,61.453430 
	C62.138214,61.266266 62.613308,61.237103 62.851418,61.230141 
	C62.911678,61.724712 62.733833,62.226242 62.325645,62.876438 
z"/>
<path fill="#E2F2FA" opacity="1.000000" stroke="none" 
	d="
M76.210739,70.873627 
	C75.975281,70.612869 75.997887,70.218842 76.303711,69.494743 
	C76.586922,69.164665 77.033302,69.030029 77.033302,69.030029 
	C77.033302,69.030029 77.136238,69.122620 77.191864,69.166092 
	C76.987923,69.719833 76.728371,70.230103 76.210739,70.873627 
z"/>
<path fill="#C2E3F5" opacity="1.000000" stroke="none" 
	d="
M74.130615,32.446815 
	C74.135033,32.122871 74.532768,31.987936 74.742302,31.971817 
	C74.951836,31.955696 75.145287,31.947226 75.145477,32.250252 
	C75.145676,32.553280 75.143997,33.049545 75.143997,33.049545 
	C75.042038,33.350197 74.875999,33.609867 74.441010,33.938347 
	C74.199493,33.622341 74.162842,33.196548 74.130615,32.446815 
z"/>
<path fill="#E2F2FA" opacity="1.000000" stroke="none" 
	d="
M72.182022,76.079948 
	C72.182022,76.079948 72.557472,75.952286 72.755371,75.941132 
	C72.824608,76.510361 72.695938,77.090736 72.347412,77.882553 
	C72.127556,78.093994 71.976120,77.965332 71.963196,77.605156 
	C72.027527,76.856636 72.104774,76.468292 72.182022,76.079948 
z"/>
<path fill="#C2E3F5" opacity="1.000000" stroke="none" 
	d="
M78.051880,23.195053 
	C78.002289,22.766157 78.079697,22.497477 78.472641,21.952171 
	C78.585075,22.235453 78.381973,22.795359 78.051880,23.195053 
z"/>
<path fill="#C2E3F5" opacity="1.000000" stroke="none" 
	d="
M68.315742,49.835487 
	C68.165504,49.417950 68.271942,48.808849 68.629333,48.005417 
	C68.777664,48.422031 68.675041,49.032982 68.315742,49.835487 
z"/>
<path fill="#E2F2FA" opacity="1.000000" stroke="none" 
	d="
M83.925377,53.280571 
	C83.981728,52.945427 84.461975,52.911800 84.701897,52.893291 
	C84.768967,53.471554 84.596123,54.068325 84.134933,54.809372 
	C83.854065,54.507668 83.861549,54.061687 83.925377,53.280571 
z"/>
<path fill="#3E81B4" opacity="1.000000" stroke="none" 
	d="
M82.630211,56.502869 
	C82.592552,56.072250 82.778786,55.557106 83.072617,55.302612 
	C83.243874,55.913975 83.135170,56.199001 82.630211,56.502869 
z"/>
<path fill="#E2F2FA" opacity="1.000000" stroke="none" 
	d="
M82.383408,58.873055 
	C82.136536,58.817677 82.081070,58.641605 81.912994,58.212498 
	C81.903206,57.791386 82.006035,57.623310 82.355270,57.292118 
	C82.592712,57.670120 82.583755,58.211239 82.383408,58.873055 
z"/>
<path fill="#E2F2FA" opacity="1.000000" stroke="none" 
	d="
M74.380264,73.870850 
	C74.245575,73.675285 74.319595,73.353706 74.635735,72.936935 
	C74.930992,73.190628 74.834702,73.491653 74.380264,73.870850 
z"/>
<path fill="#E2F2FA" opacity="1.000000" stroke="none" 
	d="
M75.124931,72.779999 
	C74.972710,72.534813 75.113091,72.156548 75.522659,71.619049 
	C75.667084,71.855522 75.542313,72.251221 75.124931,72.779999 
z"/>
<path fill="#E2F2FA" opacity="1.000000" stroke="none" 
	d="
M73.197098,75.835022 
	C73.060623,75.606895 73.188217,75.244080 73.583649,74.750191 
	C73.721375,74.979523 73.591270,75.339935 73.197098,75.835022 
z"/>
<path fill="#E2F2FA" opacity="1.000000" stroke="none" 
	d="
M81.252037,60.868225 
	C81.133926,60.667210 81.255890,60.323586 81.629707,59.844551 
	C81.751747,60.047970 81.621925,60.386795 81.252037,60.868225 
z"/>
<path fill="#C2E3F5" opacity="1.000000" stroke="none" 
	d="
M72.007324,40.736923 
	C71.803635,40.502312 71.900414,40.149620 72.202011,39.609379 
	C72.373817,39.820835 72.340813,40.219837 72.007324,40.736923 
z"/>
<path fill="#E2F2FA" opacity="1.000000" stroke="none" 
	d="
M58.277481,71.912445 
	C58.132881,71.702126 58.296482,71.429848 58.783104,71.111832 
	C58.906311,71.316742 58.732830,71.578201 58.277481,71.912445 
z"/>
<path fill="#E2F2FA" opacity="1.000000" stroke="none" 
	d="
M75.278366,32.955399 
	C75.143997,33.049545 75.145676,32.553280 75.216522,32.316025 
	C75.615707,32.302254 75.657494,32.563076 75.278366,32.955399 
z"/>
<path fill="#4484B3" opacity="1.000000" stroke="none" 
	d="
M70.894707,67.202744 
	C71.185066,67.195473 71.343910,67.374184 71.461685,67.576775 
	C71.478409,67.605553 71.295586,67.750336 71.010292,67.858337 
	C70.815460,67.875237 70.750069,67.396347 70.894707,67.202744 
z"/>
<path fill="#BDDFF1" opacity="1.000000" stroke="none" 
	d="
M40.657295,27.123680 
	C40.269062,29.157820 39.579678,31.383892 38.619072,33.810555 
	C39.017288,31.779299 39.686718,29.547457 40.657295,27.123680 
z"/>
<path fill="#BDDFF1" opacity="1.000000" stroke="none" 
	d="
M44.815136,14.224924 
	C45.070343,14.642323 45.126610,15.274316 44.961639,16.006592 
	C44.699001,15.551088 44.657600,14.995303 44.815136,14.224924 
z"/>
<path fill="#3377AB" opacity="1.000000" stroke="none" 
	d="
M20.730080,72.134933 
	C20.796181,72.529686 20.618946,73.058472 20.166451,73.684074 
	C20.089706,73.276917 20.288227,72.772942 20.730080,72.134933 
z"/>
<path fill="#BDDFF1" opacity="1.000000" stroke="none" 
	d="
M42.599308,21.986343 
	C42.708603,22.430367 42.537952,23.047876 42.065262,23.814007 
	C41.948597,23.361692 42.133984,22.760761 42.599308,21.986343 
z"/>
<path fill="#BDDFF1" opacity="1.000000" stroke="none" 
	d="
M37.923279,37.557648 
	C37.723377,37.914513 37.550091,37.931892 37.115433,37.947514 
	C37.012016,37.347134 37.169968,36.748516 37.617367,36.003254 
	C37.921177,36.310463 37.935539,36.764313 37.923279,37.557648 
z"/>
<path fill="#BDDFF1" opacity="1.000000" stroke="none" 
	d="
M43.372643,18.742680 
	C43.604809,19.166517 43.608406,19.844917 43.359245,20.763178 
	C43.119019,20.334440 43.131550,19.665842 43.372643,18.742680 
z"/>
<path fill="#F8FEFE" opacity="1.000000" stroke="none" 
	d="
M57.813957,47.957230 
	C57.057083,50.149162 56.300205,52.341091 55.276672,54.769585 
	C53.588543,54.340824 52.167065,53.675495 50.382385,52.638058 
	C49.980858,51.771633 49.942528,51.277317 49.918396,50.554760 
	C49.932602,50.326523 50.222137,49.972481 50.411652,49.844334 
	C50.823029,49.479561 50.928364,49.199123 50.931366,48.918373 
	C50.945564,48.961880 50.859291,48.931313 51.109009,48.856117 
	C51.567581,48.512497 51.776428,48.244064 51.996872,47.633263 
	C51.979939,46.835884 51.951408,46.380882 51.955734,45.961700 
	C51.988590,45.997517 51.901615,45.954082 52.210720,45.784828 
	C52.938591,44.289528 53.357353,42.963486 53.793068,41.360138 
	C53.917519,40.729404 54.025017,40.375980 54.369858,39.841270 
	C54.734112,39.093426 54.861027,38.526863 55.047318,37.594963 
	C55.237206,36.502396 55.367722,35.775158 55.862541,35.039513 
	C56.779369,33.320251 57.331894,31.609406 57.890354,29.948292 
	C57.896290,29.998028 57.863461,29.898926 58.056606,29.890751 
	C58.351082,29.806004 58.546951,29.713232 58.537094,29.655718 
	C58.497978,29.427492 58.394566,29.210285 58.344925,28.641472 
	C58.401608,27.603401 58.428341,26.912855 58.455074,26.222307 
	C58.455074,26.222307 58.711369,26.084959 58.999481,26.206539 
	C59.540810,25.581951 59.794029,24.835783 60.077545,23.815016 
	C60.171055,23.367426 60.234272,23.194437 60.573559,22.826674 
	C61.196537,21.369490 61.543442,20.107080 61.879230,18.537449 
	C61.935532,17.827326 62.002953,17.424425 62.281883,16.907642 
	C62.750580,16.584890 62.926067,16.321575 63.030792,15.740332 
	C63.019184,15.302500 62.996651,15.128147 63.043396,14.586194 
	C63.097370,13.726381 63.082069,13.234168 63.066765,12.741955 
	C63.034500,12.367131 63.002239,11.992308 62.921135,11.339439 
	C64.123848,11.223843 65.375404,11.386289 66.869545,11.850222 
	C67.068062,13.861487 67.024002,15.571266 66.969376,18.015793 
	C66.772789,19.124153 66.586777,19.497768 66.103470,20.034096 
	C65.667206,21.285336 65.528236,22.373859 65.301025,23.803057 
	C65.019936,25.060501 64.827087,25.977272 64.319153,27.011091 
	C63.813755,27.925619 63.623436,28.723099 63.401737,29.774025 
	C63.272446,30.353350 63.174534,30.679228 62.806618,31.222023 
	C62.333141,32.573921 62.129669,33.708897 61.877045,35.204140 
	C61.877068,36.039803 61.926250,36.515194 61.975433,36.990589 
	C61.975430,36.990589 61.779099,36.932934 61.477615,37.150215 
	C61.148544,37.940041 61.120960,38.512589 61.044167,39.063545 
	C60.994957,39.041962 61.096992,39.066971 60.816360,39.201576 
	C60.375324,39.908989 60.214920,40.481792 60.025688,41.034058 
	C59.996864,41.013519 60.065556,41.029568 59.770195,41.265915 
	C59.371368,42.752460 59.267895,44.002663 59.164425,45.252861 
	C59.164425,45.252861 59.181316,45.632893 58.949409,46.002537 
	C58.416317,46.900532 58.115139,47.428883 57.813957,47.957230 
z"/>
<path fill="#EAF7FC" opacity="1.000000" stroke="none" 
	d="
M40.268120,74.775650 
	C39.000275,76.753983 38.001217,78.513268 36.996620,80.634140 
	C36.991085,80.995728 36.495602,80.998001 35.950447,81.141518 
	C34.601719,82.523239 33.798141,83.761436 32.994568,84.999634 
	C31.546761,85.091614 30.098959,85.183586 28.331488,85.135574 
	C28.731136,83.128227 29.450455,81.260880 30.454920,79.209846 
	C31.602358,79.458534 33.065617,80.423111 33.230034,80.237457 
	C34.350658,78.972038 35.198032,77.464645 36.120705,75.684280 
	C36.107826,75.333244 36.542580,75.113136 37.061493,74.936264 
	C37.773262,74.184486 37.966118,73.609573 38.158974,73.034660 
	C38.158974,73.034660 38.360477,72.847984 38.671631,72.539619 
	C40.004513,70.166260 41.026237,68.101257 42.047958,66.036263 
	C42.047958,66.036263 42.001453,65.998886 42.293015,65.907745 
	C43.021812,65.190369 43.459057,64.564133 43.896301,63.937897 
	C42.776497,67.477463 41.656700,71.017036 40.268120,74.775650 
z"/>
<path fill="#367DB2" opacity="1.000000" stroke="none" 
	d="
M62.070366,17.021524 
	C62.002953,17.424425 61.935532,17.827326 61.656036,18.704380 
	C61.033218,19.546570 60.622482,19.914602 60.211746,20.282635 
	C59.892059,14.374195 57.275803,11.969072 53.566574,14.409127 
	C52.061169,15.399435 51.223557,17.404877 49.749725,19.046303 
	C49.401108,18.494539 49.384846,17.844881 49.604790,16.672659 
	C49.929047,15.785542 50.017105,15.420991 50.105160,15.056439 
	C50.105160,15.056439 50.075672,15.049584 50.091354,15.066159 
	C50.362835,14.576574 50.618629,14.070415 50.930733,13.275675 
	C54.703754,12.899014 58.420460,12.810935 62.601967,12.732405 
	C63.082069,13.234168 63.097370,13.726381 62.811943,14.675896 
	C62.217773,15.353770 62.094269,15.646132 62.051613,16.258118 
	C61.998470,16.677813 62.034420,16.849669 62.070366,17.021524 
z"/>
<path fill="#367DB2" opacity="1.000000" stroke="none" 
	d="
M54.132515,40.022552 
	C54.025017,40.375980 53.917519,40.729404 53.513580,41.573425 
	C52.778637,43.360706 52.340126,44.657394 51.901615,45.954082 
	C51.901615,45.954082 51.988590,45.997517 51.696503,46.126465 
	C51.272079,46.840637 51.139748,47.425865 50.918011,48.232712 
	C50.828609,48.454338 50.859291,48.931313 50.859291,48.931313 
	C50.859291,48.931313 50.945564,48.961880 50.714279,49.025398 
	C50.210110,49.328564 50.123154,49.623089 50.222137,49.972481 
	C50.222137,49.972481 49.932602,50.326523 49.669861,50.805286 
	C48.882923,52.833885 48.358723,54.383724 47.834526,55.933563 
	C47.541378,56.373524 47.248226,56.813480 46.729103,57.648781 
	C46.290230,58.322010 46.238213,58.627289 46.347084,58.959965 
	C46.250439,59.110443 46.153797,59.260918 45.770004,59.695965 
	C45.482857,59.980537 44.990089,59.957333 44.990089,59.957333 
	C47.678596,53.011036 50.367104,46.064735 53.488548,39.301346 
	C53.991833,39.663685 54.062176,39.843121 54.132515,40.022552 
z"/>
<path fill="#367DB2" opacity="1.000000" stroke="none" 
	d="
M47.915245,21.975704 
	C47.915245,21.975704 48.314251,21.723492 48.539192,21.652748 
	C48.193577,24.330645 47.623016,27.079287 46.627434,29.608446 
	C46.143921,28.928734 46.085438,28.468506 46.026951,28.008276 
	C46.026951,28.008276 45.997353,28.004324 46.253716,27.784391 
	C46.732407,26.713709 46.954731,25.862959 47.177055,25.012209 
	C47.177052,25.012209 47.315392,24.711571 47.494919,24.292353 
	C47.754707,23.240658 47.834976,22.608181 47.915245,21.975704 
z"/>
<path fill="#367DB2" opacity="1.000000" stroke="none" 
	d="
M41.691231,66.063255 
	C41.026237,68.101257 40.004513,70.166260 38.682007,72.402672 
	C39.365650,70.412811 40.350079,68.251526 41.691231,66.063255 
z"/>
<path fill="#367DB2" opacity="1.000000" stroke="none" 
	d="
M43.579185,39.822136 
	C43.242901,39.595749 43.185001,39.160748 43.102333,38.394650 
	C43.077564,38.063553 43.045101,38.053097 43.320518,37.850739 
	C43.804207,36.795654 44.012470,35.942928 44.220737,35.090199 
	C44.449966,34.266407 44.679195,33.442619 45.180901,32.273495 
	C45.453381,31.928160 45.922588,31.864542 45.922588,31.864542 
	C45.234249,34.447536 44.545910,37.030533 43.579185,39.822136 
z"/>
<path fill="#367DB2" opacity="1.000000" stroke="none" 
	d="
M58.090233,26.320755 
	C58.428341,26.912855 58.401608,27.603401 58.154488,28.830599 
	C57.910561,29.544474 57.887012,29.721701 57.863461,29.898926 
	C57.863461,29.898926 57.896290,29.998028 57.628899,30.136868 
	C56.802807,31.408777 56.244106,32.541851 55.685402,33.674923 
	C56.365398,31.256350 57.045395,28.837776 58.090233,26.320755 
z"/>
<path fill="#367DB2" opacity="1.000000" stroke="none" 
	d="
M41.491135,43.551285 
	C41.828049,43.087753 42.012497,42.901161 42.186035,42.453087 
	C42.246723,42.262375 42.623791,42.117805 42.820896,42.073837 
	C42.739521,43.615139 42.461040,45.200413 41.881317,46.938156 
	C41.494209,46.912437 41.408340,46.734245 41.201591,46.284981 
	C41.190559,45.308937 41.300411,44.603970 41.491135,43.551285 
z"/>
<path fill="#C8E8F8" opacity="1.000000" stroke="none" 
	d="
M55.657742,33.797630 
	C56.244106,32.541851 56.802807,31.408777 57.622963,30.087132 
	C57.331894,31.609406 56.779369,33.320251 55.885056,34.800659 
	C55.543266,34.570217 55.453037,34.099068 55.453037,34.099068 
	C55.453037,34.099068 55.630077,33.920334 55.657742,33.797630 
z"/>
<path fill="#367DB2" opacity="1.000000" stroke="none" 
	d="
M43.910900,63.947166 
	C43.459057,64.564133 43.021812,65.190369 42.312355,65.930084 
	C42.600712,64.472595 43.161289,62.901615 44.083595,61.621994 
	C44.269417,62.593616 44.093513,63.273880 43.917606,63.954144 
	C43.917606,63.954144 43.925499,63.956436 43.910900,63.947166 
z"/>
<path fill="#367DB2" opacity="1.000000" stroke="none" 
	d="
M60.297485,23.021446 
	C60.234272,23.194437 60.171055,23.367426 59.857750,23.812805 
	C59.607662,24.085194 59.168793,24.063181 59.168793,24.063181 
	C59.218155,23.073782 59.267517,22.084381 59.703461,21.380013 
	C60.159191,22.117178 60.228340,22.569311 60.297485,23.021446 
z"/>
<path fill="#EAF7FC" opacity="1.000000" stroke="none" 
	d="
M44.211979,63.794216 
	C44.093513,63.273880 44.269417,62.593616 44.457001,61.560062 
	C44.637218,60.953377 44.771629,60.683010 44.931000,60.176502 
	C44.990089,59.957333 45.482857,59.980537 45.728699,59.961021 
	C45.485146,61.172436 44.995747,62.403362 44.211979,63.794216 
z"/>
<path fill="#C8E8F8" opacity="1.000000" stroke="none" 
	d="
M60.573559,22.826674 
	C60.228340,22.569311 60.159191,22.117178 60.029907,21.325844 
	C59.969772,20.986647 60.152111,20.655420 60.181931,20.469028 
	C60.622482,19.914602 61.033218,19.546570 61.667152,19.011604 
	C61.543442,20.107080 61.196537,21.369490 60.573559,22.826674 
z"/>
<path fill="#367DB2" opacity="1.000000" stroke="none" 
	d="
M35.633842,67.023247 
	C35.287331,66.694557 35.245468,66.261871 35.212566,65.500969 
	C35.509243,64.875252 35.796959,64.577751 36.392052,64.065506 
	C36.699436,63.850746 36.837147,63.832489 36.837147,63.832489 
	C36.837147,63.832489 36.957722,63.955601 37.018963,64.017464 
	C36.699635,65.025963 36.319065,65.972610 35.633842,67.023247 
z"/>
<path fill="#367DB2" opacity="1.000000" stroke="none" 
	d="
M40.376575,51.851456 
	C40.127705,51.124229 40.150150,50.249126 40.414795,49.144970 
	C40.653961,49.845135 40.650925,50.774357 40.376575,51.851456 
z"/>
<path fill="#367DB2" opacity="1.000000" stroke="none" 
	d="
M55.097363,34.245377 
	C55.453037,34.099068 55.543266,34.570217 55.520752,34.809067 
	C55.367722,35.775158 55.237206,36.502396 54.807091,37.617752 
	C54.507488,38.005875 54.027550,38.055630 54.027550,38.055630 
	C54.265594,36.834316 54.503639,35.612999 55.097363,34.245377 
z"/>
<path fill="#C1E2F4" opacity="1.000000" stroke="none" 
	d="
M45.964783,31.556293 
	C45.922588,31.864542 45.453381,31.928160 45.217800,31.952240 
	C45.145336,30.802505 45.308453,29.628691 45.749260,28.231577 
	C46.085438,28.468506 46.143921,28.928734 46.292660,29.725620 
	C46.257603,30.457535 46.132290,30.852789 45.964783,31.556293 
z"/>
<path fill="#C8E8F8" opacity="1.000000" stroke="none" 
	d="
M59.098137,24.376673 
	C59.168793,24.063181 59.607662,24.085194 59.827454,24.087406 
	C59.794029,24.835783 59.540810,25.581951 59.127487,26.137604 
	C58.987415,25.528116 59.007446,25.109140 59.098137,24.376673 
z"/>
<path fill="#367DB2" opacity="1.000000" stroke="none" 
	d="
M37.885292,73.150627 
	C37.966118,73.609573 37.773262,74.184486 37.268303,74.807449 
	C37.174667,74.325867 37.393143,73.796234 37.885292,73.150627 
z"/>
<path fill="#C8E8F8" opacity="1.000000" stroke="none" 
	d="
M53.988731,38.290409 
	C54.027550,38.055630 54.507488,38.005875 54.747711,37.983086 
	C54.861027,38.526863 54.734112,39.093426 54.369858,39.841270 
	C54.062176,39.843121 53.991833,39.663685 53.820808,39.213112 
	C53.720131,38.941975 53.949917,38.525188 53.988731,38.290409 
z"/>
<path fill="#C1E2F4" opacity="1.000000" stroke="none" 
	d="
M48.989761,19.786085 
	C48.712238,19.816427 48.560650,19.631247 48.467308,19.420294 
	C48.444275,19.368237 48.610653,19.232367 48.872746,19.082130 
	C49.082752,19.206511 49.109966,19.383783 48.989761,19.786085 
z"/>
<path fill="#FEFFFE" opacity="1.000000" stroke="none" 
	d="
M50.040909,65.846420 
	C50.083138,67.838722 50.053856,69.498970 49.665531,71.578964 
	C48.870991,71.999146 48.435497,71.999573 48.000000,72.000000 
	C46.334335,70.808777 43.915840,69.795013 46.259666,67.263474 
	C47.177322,66.272316 47.258255,62.885258 50.040909,65.846420 
z"/>
<path fill="#EAF7FC" opacity="1.000000" stroke="none" 
	d="
M48.193321,55.911415 
	C48.358723,54.383724 48.882923,52.833885 49.655655,51.033524 
	C49.942528,51.277317 49.980858,51.771633 50.033821,52.637352 
	C49.549679,53.968922 49.050903,54.929092 48.193321,55.911415 
z"/>
<path fill="#FBFEFD" opacity="1.000000" stroke="none" 
	d="
M48.001999,72.341019 
	C48.435497,71.999573 48.870991,71.999146 49.632366,71.997818 
	C49.819622,72.862358 49.681000,73.727798 49.287460,74.805038 
	C48.689693,74.238571 48.346844,73.460312 48.001999,72.341019 
z"/>
<path fill="#EAF7FC" opacity="1.000000" stroke="none" 
	d="
M46.519341,58.810822 
	C46.238213,58.627289 46.290230,58.322010 46.708698,57.918839 
	C46.955017,58.112450 46.880795,58.401825 46.519341,58.810822 
z"/>
<path fill="#C1E2F4" opacity="1.000000" stroke="none" 
	d="
M43.917831,35.256859 
	C44.012470,35.942928 43.804207,36.795654 43.330673,37.856918 
	C43.248581,37.184811 43.431755,36.304165 43.917831,35.256859 
z"/>
<path fill="#C1E2F4" opacity="1.000000" stroke="none" 
	d="
M46.880047,25.194744 
	C46.954731,25.862959 46.732407,26.713709 46.265636,27.794378 
	C46.208473,27.141958 46.395756,26.259619 46.880047,25.194744 
z"/>
<path fill="#C1E2F4" opacity="1.000000" stroke="none" 
	d="
M47.659920,22.196594 
	C47.834976,22.608181 47.754707,23.240658 47.470383,24.128712 
	C47.312412,23.728687 47.358501,23.073086 47.659920,22.196594 
z"/>
<path fill="#C1E2F4" opacity="1.000000" stroke="none" 
	d="
M49.841507,15.213495 
	C50.017105,15.420991 49.929047,15.785542 49.627453,16.342819 
	C49.468559,16.147215 49.523209,15.758883 49.841507,15.213495 
z"/>
<path fill="#2E78AF" opacity="1.000000" stroke="none" 
	d="
M66.400772,19.871384 
	C66.586777,19.497768 66.772789,19.124153 67.024109,18.444256 
	C68.083427,10.906552 73.766663,13.073011 78.594688,12.553835 
	C79.501305,12.773661 79.957176,13.061794 80.403046,14.046411 
	C80.315689,15.495297 80.238335,16.247702 80.160980,17.000105 
	C80.160980,17.000105 79.852417,17.352318 79.764221,17.569162 
	C79.676025,17.786007 79.285225,17.823027 79.089218,17.835463 
	C78.219933,14.780995 76.276337,12.858136 73.306831,14.168982 
	C71.487831,14.971951 69.925209,17.169783 69.039108,19.103897 
	C67.148827,23.229864 65.773895,27.591936 63.750778,31.683224 
	C63.234707,31.341154 63.155666,31.173132 63.076622,31.005108 
	C63.174534,30.679228 63.272446,30.353350 63.666626,29.601532 
	C64.186668,28.415077 64.410454,27.654558 64.634232,26.894039 
	C64.827087,25.977272 65.019936,25.060501 65.558868,23.587582 
	C66.070229,21.978083 66.235504,20.924732 66.400772,19.871384 
z"/>
<path fill="#C0E0F2" opacity="1.000000" stroke="none" 
	d="
M80.381470,16.876143 
	C80.238335,16.247702 80.315689,15.495297 80.588776,14.417094 
	C80.900581,14.544200 81.016663,14.997107 81.158455,15.686331 
	C80.990097,16.199160 80.796021,16.475670 80.381470,16.876143 
z"/>
<path fill="#FBFEFD" opacity="1.000000" stroke="none" 
	d="
M33.351479,84.960243 
	C33.798141,83.761436 34.601719,82.523239 35.702713,81.143127 
	C35.236214,82.307762 34.472298,83.614311 33.351479,84.960243 
z"/>
<path fill="#0565B0" opacity="1.000000" stroke="none" 
	d="
M36.852119,63.487053 
	C36.837147,63.832489 36.699436,63.850746 36.633762,63.869698 
	C36.568089,63.888645 36.403496,63.570557 36.276325,63.444885 
	C36.289883,63.181030 36.430607,63.042854 36.767685,62.680801 
	C36.931721,62.685154 36.899410,62.913387 36.852119,63.487053 
z"/>
<path fill="#3F83B6" opacity="1.000000" stroke="none" 
	d="
M91.468277,33.061409 
	C91.436195,34.245098 91.059799,35.522984 90.403473,36.994858 
	C90.457008,35.844433 90.790489,34.500019 91.468277,33.061409 
z"/>
<path fill="#3F83B6" opacity="1.000000" stroke="none" 
	d="
M87.978653,42.227207 
	C88.086372,42.951550 87.874786,43.845009 87.373138,44.938240 
	C87.275169,44.224113 87.467262,43.310219 87.978653,42.227207 
z"/>
<path fill="#4484B3" opacity="1.000000" stroke="none" 
	d="
M70.034805,71.741829 
	C69.808372,71.266914 69.906502,70.602661 70.231178,69.683418 
	C70.424934,70.136452 70.392143,70.844467 70.034805,71.741829 
z"/>
<path fill="#3E81B4" opacity="1.000000" stroke="none" 
	d="
M77.087662,68.697662 
	C77.033302,69.030029 76.586922,69.164665 76.356445,69.199486 
	C76.298012,68.603821 76.470062,67.973328 76.946129,67.185928 
	C77.214104,67.474442 77.178062,67.919876 77.087662,68.697662 
z"/>
<path fill="#3F83B6" opacity="1.000000" stroke="none" 
	d="
M85.997040,48.153370 
	C85.977318,48.577885 85.890572,48.788715 85.527466,49.201038 
	C85.477417,48.914913 85.703720,48.427299 85.997040,48.153370 
z"/>
<path fill="#4484B3" opacity="1.000000" stroke="none" 
	d="
M71.907661,76.171661 
	C72.104774,76.468292 72.027527,76.856636 71.890137,77.537819 
	C71.829994,77.830658 71.380440,77.866768 71.158920,77.824051 
	C71.169365,77.275345 71.401337,76.769356 71.907661,76.171661 
z"/>
<path fill="#3E81B4" opacity="1.000000" stroke="none" 
	d="
M78.055618,65.278320 
	C78.207832,65.535271 78.044022,65.893806 77.630333,66.421295 
	C77.500160,66.186798 77.619881,65.783356 78.055618,65.278320 
z"/>
<path fill="#2E78AF" opacity="1.000000" stroke="none" 
	d="
M57.876221,48.362453 
	C58.115139,47.428883 58.416317,46.900532 58.969994,46.191620 
	C59.089111,47.950706 58.955730,49.890350 58.480186,51.928047 
	C58.071510,50.939957 58.004997,49.853817 57.876221,48.362453 
z"/>
<path fill="#2E78AF" opacity="1.000000" stroke="none" 
	d="
M61.939728,38.919571 
	C61.639893,40.224201 61.340057,41.528835 60.616844,42.615032 
	C60.150833,41.940922 60.108192,41.485245 60.065552,41.029568 
	C60.065556,41.029568 59.996864,41.013519 60.278450,40.869331 
	C60.739017,40.172421 60.918003,39.619694 61.096992,39.066971 
	C61.096992,39.066971 60.994957,39.041962 61.259693,39.043396 
	C61.524429,39.044827 61.939728,38.919571 61.939728,38.919571 
z"/>
<path fill="#C0E0F2" opacity="1.000000" stroke="none" 
	d="
M62.806618,31.222025 
	C63.155666,31.173132 63.234707,31.341154 63.420013,31.766645 
	C63.375221,32.716076 63.224163,33.408035 62.743156,34.460579 
	C62.413208,34.821163 61.926197,34.843876 61.926201,34.843876 
	C62.129669,33.708897 62.333141,32.573921 62.806618,31.222025 
z"/>
<path fill="#C0E0F2" opacity="1.000000" stroke="none" 
	d="
M59.770195,41.265915 
	C60.108192,41.485245 60.150833,41.940922 60.288696,42.726906 
	C60.164024,43.673321 59.944122,44.289433 59.444321,45.079201 
	C59.267895,44.002663 59.371368,42.752460 59.770195,41.265915 
z"/>
<path fill="#C0E0F2" opacity="1.000000" stroke="none" 
	d="
M61.920937,38.579773 
	C61.939728,38.919571 61.524429,39.044827 61.308907,39.064980 
	C61.120960,38.512589 61.148544,37.940041 61.375389,37.154427 
	C61.683815,37.374233 61.792980,37.807106 61.920937,38.579773 
z"/>
<path fill="#2E78AF" opacity="1.000000" stroke="none" 
	d="
M61.877041,35.204140 
	C61.926197,34.843876 62.413208,34.821163 62.656361,34.804256 
	C62.771851,35.403065 62.644192,36.018784 62.245983,36.812546 
	C61.926250,36.515194 61.877068,36.039803 61.877041,35.204140 
z"/>
<path fill="#E2F2FA" opacity="1.000000" stroke="none" 
	d="
M50.538521,78.467484 
	C50.574677,78.528839 50.502361,78.406128 50.538521,78.467484 
z"/>
<path fill="#C0E0F2" opacity="1.000000" stroke="none" 
	d="
M66.103470,20.034096 
	C66.235504,20.924732 66.070229,21.978083 65.647110,23.246906 
	C65.528236,22.373859 65.667206,21.285336 66.103470,20.034096 
z"/>
<path fill="#C8E8F8" opacity="1.000000" stroke="none" 
	d="
M52.210720,45.784828 
	C52.340126,44.657394 52.778637,43.360706 53.496635,41.850731 
	C53.357353,42.963486 52.938591,44.289528 52.210720,45.784828 
z"/>
<path fill="#C0E0F2" opacity="1.000000" stroke="none" 
	d="
M64.319153,27.011089 
	C64.410454,27.654558 64.186668,28.415077 63.698006,29.348087 
	C63.623436,28.723099 63.813755,27.925619 64.319153,27.011089 
z"/>
<path fill="#C0E0F2" opacity="1.000000" stroke="none" 
	d="
M60.816360,39.201576 
	C60.918003,39.619694 60.739017,40.172421 60.307274,40.889870 
	C60.214920,40.481792 60.375324,39.908989 60.816360,39.201576 
z"/>
<path fill="#C8E8F8" opacity="1.000000" stroke="none" 
	d="
M51.007412,48.011089 
	C51.139748,47.425865 51.272079,46.840637 51.663647,46.090645 
	C51.951408,46.380882 51.979939,46.835884 51.752541,47.644173 
	C51.496613,47.997463 51.007412,48.011089 51.007412,48.011089 
z"/>
<path fill="#EAF7FC" opacity="1.000000" stroke="none" 
	d="
M50.918011,48.232712 
	C51.007412,48.011089 51.496613,47.997463 51.740944,47.986549 
	C51.776428,48.244064 51.567581,48.512497 51.109009,48.856117 
	C50.859291,48.931313 50.828609,48.454338 50.918011,48.232712 
z"/>
<path fill="#EAF7FC" opacity="1.000000" stroke="none" 
	d="
M50.411652,49.844334 
	C50.123154,49.623089 50.210110,49.328564 50.700085,48.981888 
	C50.928364,49.199123 50.823029,49.479561 50.411652,49.844334 
z"/>
<path fill="#C8E8F8" opacity="1.000000" stroke="none" 
	d="
M58.056606,29.890751 
	C57.887012,29.721701 57.910561,29.544474 58.124542,29.178122 
	C58.394566,29.210285 58.497978,29.427492 58.537094,29.655718 
	C58.546951,29.713232 58.351082,29.806004 58.056606,29.890751 
z"/>
<path fill="#C8E8F8" opacity="1.000000" stroke="none" 
	d="
M62.281883,16.907642 
	C62.034420,16.849669 61.998470,16.677813 62.271156,16.256088 
	C62.579788,16.006218 63.019871,16.003811 63.019871,16.003811 
	C62.926067,16.321575 62.750580,16.584890 62.281883,16.907642 
z"/>
<path fill="#C1E2F4" opacity="1.000000" stroke="none" 
	d="
M63.030792,15.740332 
	C63.019871,16.003811 62.579788,16.006218 62.360245,16.008249 
	C62.094269,15.646132 62.217773,15.353770 62.742664,15.043495 
	C62.996651,15.128147 63.019184,15.302500 63.030792,15.740332 
z"/>
</svg>